<?xml version="1.0" standalone="no"?>
<!DOCTYPE svg PUBLIC "-//W3C//DTD SVG 20010904//EN"
 "http://www.w3.org/TR/2001/REC-SVG-20010904/DTD/svg10.dtd">
<svg version="1.0" xmlns="http://www.w3.org/2000/svg"
 width="1000.000000pt" height="780.000000pt" viewBox="0 0 1000.000000 780.000000"
 preserveAspectRatio="xMidYMid meet">

<g transform="translate(0.000000,780.000000) scale(0.100000,-0.100000)"
fill="#000000" stroke="none">
<path d="M7740 6141 c0 -5 -3 -16 -6 -25 -4 -11 -1 -16 10 -16 9 0 16 4 16 9
0 5 3 16 6 25 4 11 1 16 -10 16 -9 0 -16 -4 -16 -9z"/>
<path d="M8010 6124 c0 -9 5 -14 12 -12 18 6 21 28 4 28 -9 0 -16 -7 -16 -16z"/>
<path d="M7453 6104 c5 -37 27 -44 23 -8 -2 16 -8 30 -15 32 -8 3 -11 -6 -8
-24z"/>
<path d="M7592 6103 c2 -10 13 -19 26 -21 26 -4 28 6 5 24 -25 18 -35 17 -31
-3z"/>
<path d="M7893 6109 c-15 -6 -20 -13 -16 -29 7 -26 23 -36 23 -14 0 25 13 9
15 -19 1 -12 8 -22 16 -22 15 0 19 33 6 52 -5 7 -6 16 -3 22 9 13 -16 20 -41
10z"/>
<path d="M8047 6103 c-13 -12 -7 -23 13 -23 11 0 20 7 20 15 0 15 -21 21 -33
8z"/>
<path d="M8190 6080 c9 -32 -6 -43 -17 -13 -6 15 -7 15 -14 -3 -6 -15 -8 -15
-8 -3 -1 9 -8 22 -16 29 -19 16 -45 -3 -45 -31 0 -24 48 -45 70 -31 20 12 40
4 41 -16 0 -11 4 -9 11 8 6 14 10 31 9 39 -1 7 2 10 8 6 7 -4 8 0 5 10 -6 14
-34 35 -48 35 -2 0 -1 -13 4 -30z"/>
<path d="M7821 6086 c-11 -13 -11 -20 -3 -28 8 -8 13 -7 18 5 10 27 0 41 -15
23z"/>
<path d="M7016 6074 c-4 -9 -2 -22 4 -28 7 -7 14 -6 22 2 10 10 9 16 -4 28
-14 14 -16 14 -22 -2z"/>
<path d="M7770 6081 c0 -5 6 -14 14 -20 12 -10 13 -8 9 8 -5 21 -23 30 -23 12z"/>
<path d="M7992 6074 c-15 -16 -9 -44 8 -44 9 0 30 40 30 56 0 10 -26 2 -38
-12z"/>
<path d="M8326 6066 c3 -8 1 -17 -5 -21 -6 -3 -11 1 -11 9 0 10 -7 15 -17 13
-33 -5 -43 -17 -37 -43 5 -20 3 -23 -10 -18 -12 5 -19 0 -23 -15 -3 -11 -9
-21 -14 -21 -5 0 -6 -7 -2 -16 4 -10 14 -14 30 -11 13 2 26 0 29 -5 12 -19 49
-26 64 -13 18 15 80 8 80 -10 0 -7 11 -20 24 -30 13 -10 22 -24 19 -32 -3 -7
2 -13 11 -13 9 0 16 7 16 16 0 14 3 14 15 4 21 -17 19 -1 -2 23 -17 19 -17 20
0 14 10 -4 26 -1 37 5 27 17 31 8 19 -36 -13 -46 3 -73 25 -43 16 20 28 23 20
3 -3 -7 2 -20 10 -29 8 -8 12 -18 8 -22 -10 -10 -8 -39 3 -47 5 -4 16 -1 24 5
12 10 13 9 7 -1 -5 -8 0 -20 13 -31 21 -19 29 -37 11 -26 -5 3 -10 2 -10 -4 0
-5 -9 -13 -20 -16 -11 -3 -20 -11 -20 -17 0 -6 -7 -20 -17 -30 -9 -11 -11 -18
-5 -18 7 0 12 5 12 10 0 6 5 10 11 10 6 0 9 -6 6 -14 -4 -10 0 -12 14 -9 19 5
27 33 9 33 -5 0 -10 8 -9 18 0 10 3 12 6 5 2 -7 16 -13 30 -13 20 0 24 4 19
17 -4 10 -4 14 0 10 4 -4 13 -2 20 3 13 12 7 53 -7 44 -5 -3 -9 0 -9 5 0 6
-10 21 -21 32 -17 17 -19 23 -8 30 20 13 29 11 29 -6 0 -7 8 -18 18 -24 9 -5
16 -11 14 -13 -11 -11 14 -38 34 -38 40 0 26 -34 -19 -45 -15 -4 -30 -12 -34
-18 -4 -6 0 -8 10 -4 10 3 17 2 17 -3 0 -9 -30 -15 -52 -11 -15 2 -8 -20 7
-25 8 -4 15 -12 15 -20 0 -26 30 -14 45 19 8 18 12 22 9 9 -5 -21 -3 -23 15
-17 12 4 21 2 21 -4 0 -6 -4 -11 -10 -11 -16 0 -12 -30 5 -36 8 -4 22 -4 30 0
13 4 13 10 0 47 -18 51 -19 59 -2 59 15 0 53 -41 49 -54 -1 -4 2 -14 8 -21 8
-10 8 -15 0 -20 -6 -4 -8 -15 -5 -25 3 -10 1 -21 -5 -25 -5 -3 -10 -15 -10
-25 0 -10 -6 -20 -12 -23 -7 -2 -9 -8 -5 -13 12 -12 47 33 40 51 -3 8 0 15 6
15 6 0 11 -7 11 -16 0 -12 6 -15 24 -10 14 3 28 2 31 -4 4 -6 -6 -10 -24 -10
-22 0 -31 -5 -31 -16 0 -31 50 -59 64 -35 3 5 15 11 26 14 11 3 18 1 14 -4 -3
-5 4 -9 15 -9 12 0 21 -1 22 -2 8 -34 8 -89 0 -83 -6 3 -11 -2 -11 -13 0 -21
25 -36 42 -26 7 5 9 -5 4 -30 -4 -23 -3 -36 4 -36 5 0 10 -7 10 -15 0 -8 5
-15 11 -15 5 0 8 -3 6 -7 -3 -5 0 -19 5 -33 14 -35 18 -110 6 -110 -6 0 -7
-11 -4 -26 4 -16 3 -23 -4 -19 -17 10 -43 -11 -46 -38 -4 -35 17 -51 42 -32
12 9 15 17 8 22 -7 5 -4 14 7 25 12 11 19 13 22 5 5 -15 -17 -70 -25 -61 -4 3
-11 -3 -17 -14 -12 -22 -5 -33 15 -25 11 4 11 -1 -3 -25 -16 -28 -16 -31 1
-57 10 -14 23 -24 30 -22 21 8 36 -7 29 -31 -3 -12 -9 -22 -14 -22 -16 0 -10
-29 8 -38 15 -9 14 -11 -4 -21 -18 -9 -22 -7 -26 10 -8 28 -33 18 -30 -12 l3
-24 -14 25 c-11 18 -11 29 -4 38 8 10 7 17 -5 30 -21 21 -41 4 -43 -36 -2 -38
-3 -39 -13 -23 -8 12 -13 11 -29 -9 -16 -20 -20 -21 -25 -7 -4 11 1 20 14 27
11 6 17 16 13 21 -8 14 25 49 47 49 12 0 16 6 12 21 -5 17 -12 20 -44 17 -22
-2 -39 0 -39 4 0 5 7 8 15 8 8 0 15 5 15 12 0 6 -2 9 -6 6 -3 -3 -22 2 -42 12
-34 17 -37 17 -49 1 -7 -9 -13 -24 -13 -33 0 -10 -9 -27 -20 -38 -25 -25 -26
-46 -2 -59 26 -14 41 0 44 41 1 20 7 43 13 52 11 14 14 13 32 -7 20 -21 20
-23 3 -71 -10 -28 -20 -43 -23 -35 -3 9 -8 10 -14 4 -4 -5 -15 -10 -23 -10
-12 0 -14 -10 -12 -43 4 -41 3 -43 -16 -33 -28 15 -29 14 -36 -11 -5 -20 -8
-21 -17 -8 -8 12 -9 9 -4 -10 4 -14 14 -31 23 -37 14 -12 14 -13 -1 -13 -11 0
-14 -5 -10 -17 5 -15 3 -16 -8 -5 -17 16 -29 15 -29 -2 0 -23 19 -29 51 -16
31 13 34 21 19 50 -16 29 3 31 36 5 29 -25 28 -32 -11 -49 -6 -3 -3 -9 5 -15
10 -7 11 -11 3 -11 -19 0 -16 -27 5 -36 9 -4 22 -6 27 -5 6 1 0 -7 -11 -17
-17 -14 -19 -23 -12 -36 9 -16 12 -16 45 4 33 19 60 19 48 -1 -4 -5 3 -9 14
-9 12 0 21 -4 21 -9 0 -5 7 -17 16 -26 14 -13 14 -19 4 -28 -10 -9 -11 -9 -6
1 4 6 2 12 -4 12 -6 0 -8 -10 -4 -26 5 -20 4 -25 -6 -19 -9 6 -10 3 0 -15 9
-16 18 -21 36 -17 17 3 24 1 20 -8 -2 -7 1 -12 7 -12 30 1 47 -4 47 -13 0 -6
-9 -6 -23 -1 -26 10 -67 -5 -75 -27 -3 -9 2 -10 21 -3 23 9 37 0 37 -23 0 -2
-15 -2 -34 -1 -34 3 -34 3 -15 -16 11 -11 17 -24 14 -29 -3 -5 1 -7 9 -4 9 3
14 9 13 12 -1 4 8 17 20 29 21 21 21 21 26 1 4 -14 0 -22 -14 -25 -14 -4 -19
-14 -19 -38 0 -29 -3 -32 -22 -27 -12 3 -19 1 -15 -4 3 -6 2 -16 -4 -24 -7
-12 -9 -12 -9 3 0 23 -24 17 -28 -6 -4 -22 21 -47 48 -47 11 0 32 11 45 24 28
29 46 15 19 -15 -16 -18 -16 -19 2 -19 19 -1 19 -1 0 -15 -10 -8 -23 -12 -28
-9 -4 3 -10 -1 -13 -8 -3 -8 -15 -14 -25 -15 -11 -1 -18 2 -16 6 3 4 -1 17 -9
27 -11 15 -16 17 -27 6 -10 -10 -9 -14 7 -18 17 -4 20 -13 19 -50 -2 -49 6
-58 54 -60 29 -2 32 0 26 19 -6 22 -6 22 10 2 23 -30 20 -35 -28 -35 -28 0
-46 -5 -49 -14 -3 -7 -19 -16 -36 -19 -23 -5 -31 -12 -31 -28 0 -18 3 -19 15
-9 15 12 35 6 35 -11 0 -5 -7 -9 -16 -9 -11 0 -14 -5 -10 -16 5 -12 1 -14 -16
-8 -21 6 -22 6 -6 -17 8 -13 21 -25 27 -25 6 -1 19 -2 29 -3 14 -2 13 -4 -5
-11 -53 -21 -82 -80 -47 -94 20 -8 34 1 34 20 0 8 9 14 19 14 11 0 28 3 38 6
15 6 14 3 -4 -15 -24 -23 -30 -41 -14 -41 5 0 11 6 14 13 2 6 8 9 13 4 4 -4
-2 -14 -14 -23 -12 -8 -20 -20 -17 -25 4 -5 1 -9 -6 -9 -7 0 -9 -10 -6 -29 7
-32 -15 -62 -28 -41 -4 7 -16 10 -26 7 -18 -5 -23 3 -20 29 1 7 -6 14 -14 18
-9 3 -19 16 -24 28 -7 17 -10 19 -13 8 -3 -8 -11 -31 -17 -50 -7 -19 -13 -41
-14 -47 0 -7 -8 -13 -18 -13 -27 0 -32 -18 -9 -30 36 -20 24 -40 -24 -40 -50
0 -75 -20 -52 -39 9 -7 24 -10 36 -6 34 11 134 9 137 -2 5 -14 -44 -22 -56
-10 -8 8 -11 8 -11 0 0 -6 6 -13 13 -16 9 -3 10 -13 0 -48 -14 -54 -3 -73 39
-64 32 8 37 -8 11 -37 -13 -15 -14 -18 -2 -18 8 0 20 5 27 12 9 9 16 9 28 -4
20 -20 9 -41 -16 -33 -27 9 -34 -11 -11 -34 11 -11 16 -23 11 -26 -6 -4 -10
-11 -10 -17 0 -6 3 -8 7 -5 6 7 39 -33 36 -43 -3 -10 30 -40 44 -40 7 0 13 -7
13 -15 0 -8 6 -15 14 -15 25 0 27 18 4 35 -18 12 -20 17 -10 24 18 11 5 79
-18 93 -10 7 -16 18 -13 25 3 7 0 20 -7 28 -7 9 -10 19 -6 22 4 4 11 1 16 -7
6 -8 10 -10 10 -5 0 6 12 11 28 10 23 0 27 4 30 31 2 22 9 34 24 37 25 7 19
31 -10 35 -19 3 -20 6 -9 23 10 16 9 21 -3 29 -10 7 -18 5 -26 -5 -15 -20 -19
-19 -38 10 -16 24 -16 28 0 61 l17 36 14 -26 c16 -31 29 -33 38 -6 5 15 12 19
31 14 17 -4 24 -2 24 9 0 8 12 18 26 21 19 5 24 11 19 25 -3 11 -1 22 4 25 6
4 7 14 4 22 -4 11 -14 14 -34 10 -24 -5 -29 -2 -29 15 0 12 6 19 14 17 8 -2
15 0 15 5 2 24 -1 29 -14 23 -10 -3 -15 1 -15 13 0 11 5 21 12 23 7 3 -2 12
-20 20 -28 14 -32 14 -32 2 0 -9 -4 -13 -10 -9 -14 9 0 35 20 35 20 0 34 25
31 55 l-3 20 16 -20 c14 -18 15 -18 16 -2 0 24 18 21 41 -5 18 -22 20 -22 33
-5 9 12 15 14 18 6 6 -17 49 -18 76 -2 13 8 30 12 39 9 18 -7 73 30 73 49 0 7
-6 20 -14 28 -9 8 -12 24 -9 37 4 13 0 25 -8 31 -11 7 -10 11 5 22 26 19 14
33 -33 41 -26 4 -42 12 -46 25 -7 22 -17 86 -19 119 0 13 -9 29 -18 36 -10 7
-18 18 -18 25 0 11 -27 59 -40 71 -12 11 -30 51 -30 65 0 8 -7 15 -15 15 -8 0
-15 -8 -15 -17 -1 -16 -2 -15 -12 2 -6 11 -18 26 -27 33 -14 11 -13 12 9 10
17 -2 25 2 25 12 0 8 -5 14 -12 13 -7 -2 -10 4 -7 12 4 10 0 15 -14 15 -12 0
-24 5 -27 10 -3 6 3 10 14 10 28 0 35 16 13 32 -14 9 -19 24 -17 53 1 22 -3
46 -8 53 -7 9 -4 12 12 12 25 0 30 37 5 47 -23 9 5 24 31 16 18 -5 18 -4 6 11
-10 11 -11 20 -5 24 6 4 17 22 25 40 8 17 17 32 21 32 13 0 9 65 -4 78 -8 8
-8 15 0 25 14 16 8 116 -8 147 -6 11 -18 20 -28 21 -13 0 -11 3 6 9 23 10 29
25 12 35 -6 4 -8 21 -4 41 5 26 2 35 -10 40 -12 5 -14 10 -6 20 8 9 8 18 0 33
-6 12 -8 21 -5 21 3 0 1 9 -5 21 -9 15 -8 24 0 35 15 17 6 44 -15 44 -13 0
-13 3 -3 21 11 17 10 22 -6 34 -10 7 -15 18 -12 23 3 5 -1 15 -9 22 -7 6 -11
19 -8 27 4 9 0 21 -8 27 -8 6 -15 25 -17 41 -2 17 -16 43 -33 59 -19 18 -29
37 -26 47 3 10 -1 23 -8 29 -8 6 -11 18 -8 27 4 9 -1 19 -10 25 -10 5 -17 18
-17 28 0 18 -11 25 -32 21 -5 0 -8 5 -8 13 0 8 -9 17 -19 21 -12 3 -18 12 -15
20 6 15 -24 35 -42 28 -6 -2 -14 6 -17 17 -6 23 -42 25 -42 3 0 -6 -3 -15 -7
-19 -5 -4 -8 0 -8 9 0 9 5 19 10 22 17 11 11 37 -10 42 -11 3 -20 11 -20 19 0
7 -11 16 -25 20 -14 3 -35 19 -46 35 -22 31 -44 29 -36 -3 4 -12 1 -18 -6 -15
-7 2 -14 17 -15 33 -4 27 -16 43 -35 44 -5 0 -5 -10 -2 -22 6 -19 5 -21 -6
-10 -8 7 -14 20 -14 29 0 25 -31 40 -55 26 -18 -12 -19 -11 -10 11 7 18 5 28
-7 37 -13 11 -17 10 -28 -4 -12 -16 -14 -15 -29 8 -9 14 -26 25 -37 25 -20 0
-68 26 -81 45 -5 6 -11 6 -19 -2 -9 -9 -9 -16 1 -28 10 -12 10 -15 -4 -15 -9
0 -16 -7 -16 -15 0 -8 -5 -15 -11 -15 -6 0 -9 6 -6 14 4 9 -1 17 -11 19 -12 3
-10 5 6 6 15 1 22 6 18 14 -3 6 -9 20 -12 30 -4 9 -12 17 -20 17 -7 0 -11 -6
-8 -14z m-31 -66 c-3 -5 -10 -10 -16 -10 -5 0 -9 5 -9 10 0 6 7 10 16 10 8 0
12 -4 9 -10z m150 -67 l18 -28 -29 25 c-16 14 -31 26 -33 28 -2 1 3 2 11 2 9
0 24 -12 33 -27z m232 -150 c-3 -3 -10 -2 -16 2 -7 4 -7 10 2 20 10 11 13 11
15 -2 2 -8 1 -17 -1 -20z m173 -118 c0 -16 -6 -25 -15 -25 -28 0 -18 40 13 49
1 1 2 -10 2 -24z m-50 -32 c0 -5 -5 -15 -10 -23 -8 -12 -10 -11 -10 8 0 12 5
22 10 22 6 0 10 -3 10 -7z m132 -112 c3 -22 1 -27 -12 -24 -10 3 -16 15 -16
33 0 36 22 29 28 -9z m198 -274 c0 -5 -4 -5 -10 -2 -5 3 -10 14 -10 23 0 15 2
15 10 2 5 -8 10 -19 10 -23z m26 -44 c-2 -16 -5 -34 -5 -42 -1 -11 -4 -10 -14
3 -11 14 -11 24 -3 42 15 32 28 30 22 -3z m29 -102 c3 -5 1 -13 -5 -16 -6 -4
-8 -16 -4 -28 4 -15 3 -19 -4 -12 -17 17 -19 65 -3 65 6 0 12 -4 16 -9z m-225
-460 c0 -5 -3 -17 -6 -25 -6 -15 -8 -15 -19 1 -7 10 -11 21 -9 25 7 11 34 10
34 -1z m274 -60 c-9 -11 -21 13 -16 32 6 22 6 22 12 -3 4 -14 6 -27 4 -29z
m-64 8 c0 -5 -4 -7 -10 -4 -5 3 -10 1 -10 -6 0 -7 -3 -10 -6 -6 -8 7 4 27 17
27 5 0 9 -5 9 -11z m-200 -14 c-7 -9 -15 -13 -17 -11 -7 7 7 26 19 26 6 0 6
-6 -2 -15z m110 5 c0 -5 -5 -10 -11 -10 -5 0 -7 5 -4 10 3 6 8 10 11 10 2 0 4
-4 4 -10z m-30 -28 c0 -17 -13 -20 -50 -13 -4 1 34 25 48 30 1 1 2 -7 2 -17z
m-103 -8 c-3 -3 -12 -4 -19 -1 -8 3 -5 6 6 6 11 1 17 -2 13 -5z m53 -46 c0
-12 -13 -9 -32 6 -10 7 -15 16 -12 19 7 7 44 -14 44 -25z m71 -1 c-10 -9 -11
-8 -5 6 3 10 9 15 12 12 3 -3 0 -11 -7 -18z m-69 -38 c2 -6 20 -11 41 -11 23
0 37 -5 37 -13 0 -14 -58 -26 -66 -13 -3 4 -25 6 -50 4 -25 -2 -44 1 -44 7 0
5 9 7 20 4 15 -4 20 0 20 14 0 21 36 27 42 8z m143 -79 c-12 -4 -26 -15 -34
-23 -7 -9 -19 -13 -27 -10 -23 8 -16 19 19 31 38 12 71 14 42 2z m65 -256 c0
-8 -32 -33 -42 -34 -10 0 24 38 35 39 4 1 7 -2 7 -5z m35 -92 c-2 -2 -11 2
-19 11 -8 8 -12 18 -8 21 3 4 12 -1 19 -10 7 -10 11 -20 8 -22z m23 -51 c-1
-26 -3 -28 -19 -18 -17 10 -17 13 -2 29 21 23 22 23 21 -11z m-49 -10 c6 -10
7 -21 4 -25 -9 -8 -33 14 -33 30 0 20 18 17 29 -5z m36 -63 c7 -7 7 -12 0 -14
-61 -24 -75 -47 -32 -52 22 -3 30 1 34 17 3 12 9 21 14 21 14 0 10 -16 -7 -31
-9 -7 -14 -25 -13 -43 2 -17 -3 -40 -9 -51 -12 -18 -12 -17 -7 11 7 39 -16 64
-40 44 -9 -7 -13 -20 -10 -29 5 -12 3 -13 -6 -4 -7 7 -9 19 -4 30 4 10 9 30
10 46 2 22 -2 28 -24 34 l-26 7 33 8 c17 5 32 13 32 19 0 12 40 2 55 -13z
m-145 -78 c0 -5 -4 -10 -10 -10 -5 0 -10 5 -10 10 0 6 5 10 10 10 6 0 10 -4
10 -10z m258 -41 c12 -19 11 -20 -7 -14 -15 4 -21 2 -21 -8 0 -10 -9 -14 -25
-13 -32 1 -32 10 0 24 14 6 25 16 25 22 0 17 14 11 28 -11z m89 -45 c-9 -10
-38 16 -31 28 4 6 13 4 22 -6 9 -8 13 -19 9 -22z m-302 -3 c-3 -20 -24 -25
-59 -11 -36 13 -27 25 22 26 31 1 39 -2 37 -15z m213 -24 c2 -10 -3 -17 -12
-17 -10 0 -16 9 -16 21 0 24 23 21 28 -4z m-78 3 c0 -5 -2 -10 -4 -10 -3 0 -8
5 -11 10 -3 6 -1 10 4 10 6 0 11 -4 11 -10z m-133 -222 c-3 -8 -6 -5 -6 6 -1
11 2 17 5 13 3 -3 4 -12 1 -19z m-197 -88 c0 -5 -2 -10 -4 -10 -3 0 -8 5 -11
10 -3 6 -1 10 4 10 6 0 11 -4 11 -10z m260 -4 c0 -2 -7 -6 -15 -10 -8 -3 -15
-1 -15 4 0 6 7 10 15 10 8 0 15 -2 15 -4z m-85 -24 c-3 -3 -11 0 -18 7 -9 10
-8 11 6 5 10 -3 15 -9 12 -12z m-208 -39 c-11 -10 -26 8 -20 23 5 15 7 14 15
-1 6 -9 7 -19 5 -22z m87 -91 c2 -4 1 -14 -3 -21 -6 -9 -10 -7 -14 8 -5 20 7
29 17 13z m-60 -27 c-4 -8 -8 -15 -10 -15 -2 0 -4 7 -4 15 0 8 4 15 10 15 5 0
7 -7 4 -15z m61 -36 c0 -8 -7 -14 -15 -14 -8 -1 -14 -6 -13 -11 1 -6 -3 -11
-10 -11 -7 0 -19 -4 -28 -7 -10 -5 -19 -1 -22 8 -4 10 -1 16 8 16 8 0 15 3 15
8 0 9 42 30 55 27 6 -1 10 -8 10 -16z m20 -63 c-20 -14 -35 -12 -35 5 0 5 12
9 27 9 26 0 26 -1 8 -14z"/>
<path d="M9210 3900 c0 -5 4 -10 9 -10 6 0 13 5 16 10 3 6 -1 10 -9 10 -9 0
-16 -4 -16 -10z"/>
<path d="M7200 6057 c0 -14 20 -37 32 -37 4 0 8 5 8 10 0 6 -7 10 -15 10 -9 0
-12 6 -9 15 4 8 1 15 -5 15 -6 0 -11 -6 -11 -13z"/>
<path d="M7657 6053 c-12 -11 -8 -23 8 -23 8 0 15 7 15 15 0 16 -12 20 -23 8z"/>
<path d="M7795 6022 c-4 -10 1 -22 11 -29 10 -7 12 -13 6 -13 -7 0 -12 -8 -12
-17 0 -15 2 -14 19 3 10 10 14 21 10 22 -13 5 -11 19 5 35 13 13 12 15 -9 15
-13 0 -27 -8 -30 -16z"/>
<path d="M8020 6020 c0 -5 7 -10 15 -10 8 0 15 5 15 10 0 6 -7 10 -15 10 -8 0
-15 -4 -15 -10z"/>
<path d="M7352 6009 c2 -6 8 -10 13 -10 5 0 11 4 13 10 2 6 -4 11 -13 11 -9 0
-15 -5 -13 -11z"/>
<path d="M7405 5989 c-10 -15 1 -23 20 -15 9 3 13 10 10 16 -8 13 -22 13 -30
-1z"/>
<path d="M7515 5980 c3 -5 8 -10 11 -10 2 0 4 5 4 10 0 6 -5 10 -11 10 -5 0
-7 -4 -4 -10z"/>
<path d="M8130 5980 c0 -5 5 -10 10 -10 6 0 10 5 10 10 0 6 -4 10 -10 10 -5 0
-10 -4 -10 -10z"/>
<path d="M8060 5955 c0 -9 5 -15 11 -13 6 2 11 8 11 13 0 5 -5 11 -11 13 -6 2
-11 -4 -11 -13z"/>
<path d="M8100 5960 c0 -5 5 -10 10 -10 6 0 10 5 10 10 0 6 -4 10 -10 10 -5 0
-10 -4 -10 -10z"/>
<path d="M6940 5950 c0 -5 5 -10 10 -10 6 0 10 5 10 10 0 6 -4 10 -10 10 -5 0
-10 -4 -10 -10z"/>
<path d="M7825 5939 c-4 -6 -5 -11 -4 -12 2 -1 14 -8 26 -14 27 -15 39 -1 17
21 -18 19 -30 20 -39 5z"/>
<path d="M7920 5940 c0 -5 5 -10 10 -10 6 0 10 5 10 10 0 6 -4 10 -10 10 -5 0
-10 -4 -10 -10z"/>
<path d="M7997 5943 c-12 -11 -8 -38 9 -61 12 -18 19 -20 29 -12 10 8 11 17 5
28 -5 10 -11 25 -14 35 -6 18 -18 22 -29 10z"/>
<path d="M7400 5930 c0 -5 5 -10 10 -10 6 0 10 5 10 10 0 6 -4 10 -10 10 -5 0
-10 -4 -10 -10z"/>
<path d="M8155 5930 c-3 -5 -1 -10 4 -10 6 0 11 5 11 10 0 6 -2 10 -4 10 -3 0
-8 -4 -11 -10z"/>
<path d="M7660 5915 c0 -9 5 -15 11 -13 6 2 11 8 11 13 0 5 -5 11 -11 13 -6 2
-11 -4 -11 -13z"/>
<path d="M8230 5915 c-7 -9 -9 -19 -5 -23 4 -4 10 -1 12 6 3 6 11 12 19 12 8
0 14 5 14 10 0 15 -26 12 -40 -5z"/>
<path d="M7927 5914 c-8 -8 1 -24 14 -24 5 0 9 7 9 15 0 15 -12 20 -23 9z"/>
<path d="M7712 5893 c2 -10 10 -18 18 -18 22 0 18 29 -3 33 -14 3 -18 -1 -15
-15z"/>
<path d="M7477 5883 c-10 -9 -9 -23 2 -23 5 0 11 7 15 15 5 15 -5 20 -17 8z"/>
<path d="M8234 5879 c-10 -17 13 -36 27 -22 12 12 4 33 -11 33 -5 0 -12 -5
-16 -11z"/>
<path d="M8320 5880 c0 -6 7 -10 15 -10 8 0 15 2 15 4 0 2 -7 6 -15 10 -8 3
-15 1 -15 -4z"/>
<path d="M8386 5883 c-15 -15 -5 -34 14 -28 11 4 20 2 20 -4 0 -6 4 -11 10
-11 5 0 7 6 4 13 -6 16 -40 38 -48 30z"/>
<path d="M7010 5870 c0 -5 5 -10 10 -10 6 0 10 5 10 10 0 6 -4 10 -10 10 -5 0
-10 -4 -10 -10z"/>
<path d="M7485 5850 c-3 -5 3 -10 14 -10 12 0 21 5 21 10 0 6 -6 10 -14 10 -8
0 -18 -4 -21 -10z"/>
<path d="M8020 5840 c0 -5 6 -10 14 -10 8 0 18 5 21 10 3 6 -3 10 -14 10 -12
0 -21 -4 -21 -10z"/>
<path d="M8200 5835 c0 -8 2 -15 4 -15 2 0 6 7 10 15 3 8 1 15 -4 15 -6 0 -10
-7 -10 -15z"/>
<path d="M8320 5829 c0 -25 33 -22 38 4 2 12 -3 17 -17 17 -15 0 -21 -6 -21
-21z"/>
<path d="M7260 5830 c0 -5 5 -10 11 -10 5 0 7 5 4 10 -3 6 -8 10 -11 10 -2 0
-4 -4 -4 -10z"/>
<path d="M7290 5829 c0 -5 5 -7 10 -4 6 3 10 8 10 11 0 2 -4 4 -10 4 -5 0 -10
-5 -10 -11z"/>
<path d="M7480 5817 c0 -14 35 -47 50 -47 13 0 13 16 0 41 -12 21 -50 26 -50
6z"/>
<path d="M8474 5815 c-7 -17 4 -37 17 -30 12 8 12 45 -1 45 -6 0 -13 -7 -16
-15z"/>
<path d="M8205 5800 c3 -5 11 -10 16 -10 6 0 7 5 4 10 -3 6 -11 10 -16 10 -6
0 -7 -4 -4 -10z"/>
<path d="M7910 5781 c0 -11 4 -22 9 -25 12 -8 34 21 26 34 -11 17 -35 11 -35
-9z"/>
<path d="M8020 5790 c0 -5 9 -10 21 -10 11 0 17 5 14 10 -3 6 -13 10 -21 10
-8 0 -14 -4 -14 -10z"/>
<path d="M8153 5784 c-3 -9 3 -25 16 -37 l22 -22 -5 30 c-2 17 -5 33 -5 38 -2
13 -22 7 -28 -9z"/>
<path d="M7177 5784 c-4 -4 -7 -20 -7 -36 0 -23 4 -29 17 -26 10 2 19 10 21
18 3 19 -21 54 -31 44z"/>
<path d="M7567 5776 c-10 -8 -14 -17 -9 -20 14 -9 52 5 52 20 0 18 -20 17 -43
0z"/>
<path d="M8346 5774 c-9 -23 -8 -24 14 -24 13 0 20 7 20 20 0 24 -25 27 -34 4z"/>
<path d="M8530 5760 c0 -33 11 -38 30 -15 15 18 6 45 -15 45 -10 0 -15 -10
-15 -30z"/>
<path d="M8580 5779 c0 -5 5 -7 10 -4 6 3 10 8 10 11 0 2 -4 4 -10 4 -5 0 -10
-5 -10 -11z"/>
<path d="M7735 5770 c3 -5 8 -10 11 -10 2 0 4 5 4 10 0 6 -5 10 -11 10 -5 0
-7 -4 -4 -10z"/>
<path d="M6190 5759 c0 -5 5 -7 10 -4 6 3 10 8 10 11 0 2 -4 4 -10 4 -5 0 -10
-5 -10 -11z"/>
<path d="M8475 5761 c-3 -5 -1 -12 5 -16 12 -7 30 2 30 16 0 12 -27 12 -35 0z"/>
<path d="M7702 5738 c6 -18 28 -21 28 -4 0 9 -7 16 -16 16 -9 0 -14 -5 -12
-12z"/>
<path d="M8131 5734 c0 -11 3 -14 6 -6 3 7 2 16 -1 19 -3 4 -6 -2 -5 -13z"/>
<path d="M6787 5733 c-4 -3 -7 -11 -7 -17 0 -6 5 -5 12 2 6 6 9 14 7 17 -3 3
-9 2 -12 -2z"/>
<path d="M7897 5734 c-11 -11 3 -24 24 -24 12 0 19 5 17 13 -5 14 -31 21 -41
11z"/>
<path d="M8082 5728 c2 -6 10 -14 16 -16 7 -2 10 2 6 12 -7 18 -28 22 -22 4z"/>
<path d="M8417 5724 c-9 -10 2 -24 19 -24 8 0 14 7 14 15 0 15 -21 21 -33 9z"/>
<path d="M6804 5705 c-8 -21 -3 -25 24 -18 13 3 21 11 19 17 -6 18 -37 19 -43
1z"/>
<path d="M7972 5702 c-2 -7 -2 -15 1 -19 4 -3 -3 -13 -15 -23 -13 -10 -18 -22
-13 -29 6 -11 9 -10 16 0 9 15 13 -12 9 -58 -2 -30 9 -29 48 3 37 31 41 49 12
57 -29 7 -25 26 8 33 52 11 54 12 42 33 -8 15 -20 19 -56 18 -27 -1 -49 -7
-52 -15z"/>
<path d="M7870 5694 c0 -8 5 -12 10 -9 6 3 10 10 10 16 0 5 -4 9 -10 9 -5 0
-10 -7 -10 -16z"/>
<path d="M8365 5700 c4 -6 11 -8 16 -5 14 9 11 15 -7 15 -8 0 -12 -5 -9 -10z"/>
<path d="M8550 5690 c0 -11 7 -20 15 -20 8 0 15 -7 15 -15 0 -8 7 -15 15 -15
12 0 13 4 5 19 -14 28 -13 39 8 44 9 3 0 5 -20 6 -32 1 -38 -2 -38 -19z"/>
<path d="M6494 5675 c-6 -24 9 -55 27 -55 14 0 30 40 24 60 -9 29 -43 25 -51
-5z"/>
<path d="M8640 5690 c0 -5 5 -10 11 -10 5 0 7 5 4 10 -3 6 -8 10 -11 10 -2 0
-4 -4 -4 -10z"/>
<path d="M7889 5669 c-6 -12 -9 -30 -6 -40 4 -14 0 -19 -17 -19 -15 0 -27 -9
-34 -25 -15 -32 -15 -31 4 -49 33 -34 77 -5 67 44 -3 19 -1 30 6 30 6 0 11 8
11 19 0 10 7 24 15 31 13 11 13 15 3 21 -21 14 -37 10 -49 -12z"/>
<path d="M8050 5649 c0 -5 5 -7 10 -4 6 3 10 8 10 11 0 2 -4 4 -10 4 -5 0 -10
-5 -10 -11z"/>
<path d="M8457 5654 c-14 -15 -6 -34 14 -34 14 0 19 5 17 17 -3 18 -20 27 -31
17z"/>
<path d="M6555 5630 c-4 -6 -3 -16 3 -22 6 -6 12 -6 17 2 4 6 3 16 -3 22 -6 6
-12 6 -17 -2z"/>
<path d="M7670 5610 c0 -5 7 -10 15 -10 8 0 15 5 15 10 0 6 -7 10 -15 10 -8 0
-15 -4 -15 -10z"/>
<path d="M7215 5589 c-4 -11 -5 -23 -2 -26 12 -11 47 10 47 28 0 26 -37 25
-45 -2z"/>
<path d="M7377 5603 c-12 -11 -8 -23 8 -23 8 0 15 7 15 15 0 16 -12 20 -23 8z"/>
<path d="M8324 5599 c-10 -17 13 -36 27 -22 12 12 4 33 -11 33 -5 0 -12 -5
-16 -11z"/>
<path d="M8506 5601 c-3 -5 1 -15 10 -22 13 -10 17 -10 24 1 5 8 6 18 4 22 -7
11 -31 10 -38 -1z"/>
<path d="M7638 5558 c-21 -16 -38 -36 -38 -44 0 -18 43 -41 48 -25 4 13 32 15
32 2 0 -5 7 -17 16 -25 21 -22 56 -3 52 27 -2 16 -10 22 -28 22 -32 0 -60 33
-39 46 9 5 10 11 4 18 -7 6 -23 -1 -47 -21z"/>
<path d="M6715 5570 c-3 -5 -1 -10 4 -10 6 0 11 5 11 10 0 6 -2 10 -4 10 -3 0
-8 -4 -11 -10z"/>
<path d="M8600 5571 c0 -6 -6 -8 -14 -5 -19 7 -29 -11 -13 -25 10 -7 17 -5 30
9 9 11 12 22 7 25 -6 4 -10 2 -10 -4z"/>
<path d="M7934 5545 c-8 -19 3 -48 15 -41 14 9 20 -16 9 -38 -13 -25 5 -44 26
-27 12 10 15 8 18 -11 2 -18 12 -25 46 -32 34 -7 46 -6 53 5 15 24 6 43 -28
58 -22 10 -33 22 -35 40 -2 21 -9 27 -36 29 -18 2 -36 10 -39 18 -7 18 -22 18
-29 -1z"/>
<path d="M8490 5546 c0 -22 18 -29 35 -13 16 17 10 27 -17 27 -10 0 -18 -6
-18 -14z"/>
<path d="M8669 5553 c-22 -5 -31 -53 -13 -60 8 -3 14 -14 14 -25 0 -11 5 -16
10 -13 10 6 8 23 -7 63 -3 6 2 12 11 12 9 0 16 -8 16 -20 0 -12 10 -25 26 -32
22 -11 28 -10 40 7 16 22 -1 54 -20 35 -17 -17 -30 -11 -15 7 12 15 12 16 -3
11 -10 -4 -19 -1 -22 8 -5 14 -9 15 -37 7z"/>
<path d="M8527 5513 c-13 -13 -7 -32 8 -27 8 4 15 12 15 20 0 15 -12 19 -23 7z"/>
<path d="M8606 5494 c-11 -7 -23 -15 -29 -17 -6 -2 -11 -21 -13 -43 -1 -21 -7
-51 -13 -66 -12 -33 -7 -37 59 -45 46 -5 50 -4 50 15 0 12 -9 23 -21 27 -15 5
-18 10 -10 15 7 4 11 11 10 16 -1 5 1 20 5 34 4 16 2 36 -6 52 -12 23 -16 24
-32 12z m-5 -37 c-10 -9 -11 -8 -5 6 3 10 9 15 12 12 3 -3 0 -11 -7 -18z"/>
<path d="M8820 5500 c-12 -8 -11 -10 8 -10 12 0 22 5 22 10 0 13 -11 13 -30 0z"/>
<path d="M4420 5485 c0 -8 7 -15 15 -15 8 0 15 7 15 15 0 8 -7 15 -15 15 -8 0
-15 -7 -15 -15z"/>
<path d="M5530 5475 c0 -9 5 -15 11 -13 6 2 11 8 11 13 0 5 -5 11 -11 13 -6 2
-11 -4 -11 -13z"/>
<path d="M8448 5465 c-4 -17 -1 -25 8 -25 8 0 14 7 14 15 0 8 0 18 1 22 2 21
-19 10 -23 -12z"/>
<path d="M7865 5470 c-3 -5 1 -10 9 -10 9 0 16 5 16 10 0 6 -4 10 -9 10 -6 0
-13 -4 -16 -10z"/>
<path d="M8120 5466 c0 -25 12 -46 26 -46 17 0 17 1 4 34 -10 28 -30 35 -30
12z"/>
<path d="M8776 5455 c-3 -13 -15 -29 -26 -35 -29 -15 -25 -25 10 -25 24 0 29
4 24 17 -8 26 5 42 22 27 8 -6 18 -8 22 -4 4 4 1 10 -5 12 -7 3 -13 11 -13 19
0 24 -27 15 -34 -11z"/>
<path d="M2725 5460 c-8 -13 4 -32 16 -25 12 8 12 35 0 35 -6 0 -13 -4 -16
-10z"/>
<path d="M7611 5457 c-16 -16 7 -41 25 -26 8 6 14 15 14 19 0 14 -27 19 -39 7z"/>
<path d="M8195 5440 c-8 -13 4 -32 16 -25 12 8 12 35 0 35 -6 0 -13 -4 -16
-10z"/>
<path d="M8342 5438 c6 -18 28 -21 28 -4 0 9 -7 16 -16 16 -9 0 -14 -5 -12
-12z"/>
<path d="M8460 5414 c-6 -15 -8 -29 -5 -33 10 -10 40 16 40 34 0 30 -24 29
-35 -1z"/>
<path d="M8681 5421 c-11 -7 -10 -11 6 -20 22 -11 33 -6 33 16 0 15 -18 17
-39 4z"/>
<path d="M5290 5405 c0 -8 5 -15 10 -15 6 0 10 7 10 15 0 8 -4 15 -10 15 -5 0
-10 -7 -10 -15z"/>
<path d="M8324 5409 c-10 -17 13 -36 27 -22 12 12 4 33 -11 33 -5 0 -12 -5
-16 -11z"/>
<path d="M8805 5401 c-3 -6 -1 -11 6 -11 9 0 9 -3 0 -14 -15 -18 5 -34 21 -18
7 7 6 17 -5 32 -9 13 -17 17 -22 11z"/>
<path d="M7832 5388 c6 -18 28 -21 28 -4 0 9 -7 16 -16 16 -9 0 -14 -5 -12
-12z"/>
<path d="M7932 5392 c-16 -5 3 -32 23 -32 8 0 16 -6 18 -12 3 -7 6 -1 6 13 1
27 -20 41 -47 31z"/>
<path d="M5635 5380 c-3 -5 -2 -10 4 -10 5 0 13 5 16 10 3 6 2 10 -4 10 -5 0
-13 -4 -16 -10z"/>
<path d="M8135 5381 c-9 -16 3 -31 26 -31 14 0 19 6 17 17 -4 20 -33 29 -43
14z"/>
<path d="M8495 5380 c-4 -6 -3 -16 3 -22 6 -6 12 -6 17 2 4 6 3 16 -3 22 -6 6
-12 6 -17 -2z"/>
<path d="M8742 5381 c-10 -6 -10 -10 3 -21 18 -15 42 0 31 19 -8 13 -16 14
-34 2z"/>
<path d="M8983 5379 c-26 -10 -30 -31 -8 -49 8 -7 12 -16 9 -22 -3 -5 0 -16 8
-25 13 -16 6 -16 -47 3 -13 5 -27 -6 -42 -33 -11 -19 -9 -22 14 -28 34 -8 43
3 18 22 -19 15 -19 15 8 9 16 -4 27 -2 27 4 0 6 8 5 20 -2 22 -14 29 -44 8
-32 -10 5 -10 4 -2 -5 17 -19 49 -9 52 16 2 12 -5 27 -15 35 -18 13 -24 63
-10 85 11 17 -15 32 -40 22z"/>
<path d="M8684 5364 c3 -9 6 -20 6 -25 0 -15 17 -10 24 8 4 9 1 20 -6 25 -21
12 -31 9 -24 -8z"/>
<path d="M8892 5372 c-10 -3 -10 -7 -1 -18 9 -11 9 -18 1 -26 -16 -16 -15 -38
1 -38 15 1 52 50 37 50 -6 0 -14 8 -18 18 -4 11 -13 17 -20 14z"/>
<path d="M7727 5363 c-4 -3 -7 -11 -7 -17 0 -6 5 -5 12 2 6 6 9 14 7 17 -3 3
-9 2 -12 -2z"/>
<path d="M8437 5358 c-2 -7 2 -21 11 -30 14 -17 13 -18 -11 -18 -20 0 -25 4
-20 17 4 10 2 14 -4 10 -5 -3 -10 -19 -11 -36 0 -24 4 -30 25 -34 25 -5 96 24
108 43 7 11 -22 33 -34 26 -6 -4 -7 -14 -4 -24 5 -14 3 -15 -7 -5 -7 7 -14 23
-15 35 -2 25 -30 37 -38 16z"/>
<path d="M6149 5348 c-5 -25 -6 -78 -1 -78 12 0 31 51 25 66 -4 12 -22 20 -24
12z"/>
<path d="M7975 5318 c-13 -22 -14 -33 -6 -41 8 -8 14 -8 23 1 17 17 29 15 22
-3 -4 -9 0 -15 9 -15 17 0 29 50 16 66 -21 25 -46 22 -64 -8z"/>
<path d="M8725 5318 c10 -32 7 -69 -6 -84 -16 -19 -4 -45 17 -37 12 4 15 3 10
-5 -4 -7 -1 -12 7 -12 8 0 13 -10 13 -22 -1 -18 4 -23 24 -22 14 1 29 -4 33
-10 5 -7 7 -3 6 9 -4 52 12 60 17 9 4 -33 10 -40 27 -26 10 9 16 9 25 0 6 -6
14 -9 18 -6 3 4 -9 20 -28 37 -18 17 -28 31 -21 31 11 0 9 25 -4 60 -4 8 -6
18 -5 22 1 3 -5 12 -13 18 -8 7 -15 21 -15 31 0 11 -6 19 -14 19 -17 0 -15
-62 3 -83 6 -8 8 -17 4 -21 -4 -4 -1 -11 7 -16 12 -7 11 -12 -4 -29 -14 -16
-22 -18 -32 -10 -10 8 -10 15 -2 29 9 14 9 24 -1 42 -7 13 -13 38 -13 56 -1
17 -5 29 -9 26 -4 -2 -10 0 -14 6 -3 5 -13 10 -22 10 -11 0 -14 -6 -8 -22z
m42 -84 c-3 -3 -12 -4 -19 -1 -8 3 -5 6 6 6 11 1 17 -2 13 -5z"/>
<path d="M7540 5319 c0 -6 -7 -9 -15 -5 -8 3 -15 1 -15 -3 0 -12 21 -19 38
-13 14 5 16 32 2 32 -5 0 -10 -5 -10 -11z"/>
<path d="M8210 5322 c0 -24 14 -42 32 -42 29 0 20 44 -9 48 -13 2 -23 -1 -23
-6z"/>
<path d="M8583 5296 c3 -8 1 -17 -6 -19 -9 -3 -9 -8 2 -20 12 -15 16 -15 41
-2 25 13 30 13 40 0 20 -24 28 -18 25 18 -2 17 -3 34 -4 36 -1 2 -10 -4 -21
-14 -15 -14 -19 -15 -15 -4 4 11 -3 15 -31 17 -29 2 -35 0 -31 -12z"/>
<path d="M6604 5285 c-7 -18 3 -35 21 -35 18 0 26 25 12 39 -15 15 -27 14 -33
-4z"/>
<path d="M7595 5289 c-4 -6 -2 -15 5 -19 7 -4 10 -15 7 -23 -7 -17 22 -32 35
-19 5 5 10 22 11 38 2 25 -2 29 -25 32 -14 2 -29 -2 -33 -9z"/>
<path d="M7474 5275 c-4 -9 -2 -21 3 -26 14 -14 45 1 41 20 -4 22 -37 26 -44
6z"/>
<path d="M8353 5244 c-1 -30 1 -32 20 -25 28 10 29 41 2 51 -17 6 -20 3 -22
-26z"/>
<path d="M6090 5254 c0 -8 5 -12 10 -9 6 3 10 10 10 16 0 5 -4 9 -10 9 -5 0
-10 -7 -10 -16z"/>
<path d="M8473 5254 c-8 -22 18 -37 36 -20 7 8 10 19 7 25 -10 16 -36 13 -43
-5z"/>
<path d="M6716 5251 c-4 -5 -2 -12 3 -15 5 -4 12 -2 15 3 4 5 2 12 -3 15 -5 4
-12 2 -15 -3z"/>
<path d="M8133 5234 c-7 -19 2 -28 22 -21 19 8 19 23 0 31 -9 3 -18 -1 -22
-10z"/>
<path d="M8530 5236 c0 -8 5 -18 10 -21 6 -3 10 1 10 9 0 8 -4 18 -10 21 -5 3
-10 -1 -10 -9z"/>
<path d="M6868 5233 c-10 -2 -18 -13 -18 -24 0 -16 6 -20 28 -17 19 2 27 9 27
22 0 21 -10 26 -37 19z"/>
<path d="M8644 5215 c-1 -15 3 -25 12 -25 9 0 12 -8 8 -28 -4 -19 1 -40 16
-65 25 -42 53 -50 49 -14 -2 12 0 27 3 33 10 15 -24 85 -38 80 -7 -3 -10 3 -7
15 3 10 1 19 -5 19 -6 0 -16 2 -24 5 -8 3 -13 -3 -14 -20z"/>
<path d="M4950 5215 c0 -8 5 -15 10 -15 6 0 10 7 10 15 0 8 -4 15 -10 15 -5 0
-10 -7 -10 -15z"/>
<path d="M5580 5222 c0 -6 4 -13 9 -16 5 -3 7 -15 4 -26 -4 -15 0 -20 16 -20
28 0 27 13 -4 46 -14 15 -25 22 -25 16z"/>
<path d="M7325 5193 c6 -13 12 -17 14 -10 2 7 7 17 11 22 5 6 -1 10 -14 10
-19 0 -20 -3 -11 -22z"/>
<path d="M8472 5198 c3 -7 13 -15 24 -17 16 -3 17 -1 5 13 -16 19 -34 21 -29
4z"/>
<path d="M8565 5200 c3 -5 12 -7 20 -3 21 7 19 13 -6 13 -11 0 -18 -4 -14 -10z"/>
<path d="M8960 5189 c0 -24 23 -21 28 4 2 10 -3 17 -12 17 -10 0 -16 -9 -16
-21z"/>
<path d="M7157 5194 c-9 -10 2 -24 19 -24 8 0 14 7 14 15 0 15 -21 21 -33 9z"/>
<path d="M8383 5183 c-18 -6 -16 -23 1 -23 17 0 30 16 19 23 -5 2 -14 2 -20 0z"/>
<path d="M9042 5183 c-9 -3 -11 -16 -6 -39 5 -29 4 -34 -14 -34 -11 0 -25 -7
-32 -15 -7 -9 -18 -12 -24 -8 -7 5 -3 0 7 -9 19 -18 19 -18 -1 -18 -11 0 -23
6 -25 13 -3 6 -6 2 -6 -9 -1 -14 -9 -24 -23 -28 -19 -4 -20 -7 -9 -18 11 -10
14 -10 18 0 5 14 43 17 43 2 0 -5 8 -7 18 -3 14 5 15 3 5 -8 -7 -7 -13 -19
-13 -26 0 -20 37 -56 49 -48 15 9 14 32 -3 42 -7 4 -15 25 -18 45 -3 28 0 38
13 41 12 3 15 -1 12 -13 -6 -21 24 -52 46 -48 11 2 17 16 19 41 3 33 1 37 -20
38 -13 0 -17 3 -11 6 9 3 11 17 7 46 -7 47 -13 57 -32 50z"/>
<path d="M8910 5165 c0 -9 5 -15 11 -13 6 2 11 8 11 13 0 5 -5 11 -11 13 -6 2
-11 -4 -11 -13z"/>
<path d="M9006 5155 c4 -8 1 -15 -7 -15 -7 0 -10 -2 -7 -5 3 -3 12 -3 21 1 16
6 13 34 -4 34 -4 0 -6 -7 -3 -15z"/>
<path d="M7273 5143 c9 -9 19 -14 23 -11 10 10 -6 28 -24 28 -15 0 -15 -1 1
-17z"/>
<path d="M8475 5150 c-3 -5 -2 -10 4 -10 5 0 13 5 16 10 3 6 2 10 -4 10 -5 0
-13 -4 -16 -10z"/>
<path d="M7006 5135 c-11 -30 -6 -40 11 -22 12 12 14 20 6 28 -7 7 -12 6 -17
-6z"/>
<path d="M8493 5138 c-27 -13 -38 -48 -15 -48 21 1 52 23 52 38 0 17 -13 20
-37 10z"/>
<path d="M8590 5131 c0 -11 9 -25 21 -31 19 -11 20 -9 17 17 -4 34 -38 46 -38
14z"/>
<path d="M6736 5132 c-3 -6 -1 -14 5 -17 15 -10 25 3 12 16 -7 7 -13 7 -17 1z"/>
<path d="M8936 5131 c-3 -5 1 -12 10 -15 20 -8 29 -1 19 13 -8 13 -22 14 -29
2z"/>
<path d="M5282 5118 c6 -18 28 -21 28 -4 0 9 -7 16 -16 16 -9 0 -14 -5 -12
-12z"/>
<path d="M8322 5121 c2 -7 7 -12 11 -12 12 1 9 15 -3 20 -7 2 -11 -2 -8 -8z"/>
<path d="M9095 5110 c-3 -5 -1 -10 4 -10 6 0 11 5 11 10 0 6 -2 10 -4 10 -3 0
-8 -4 -11 -10z"/>
<path d="M1220 5095 c-10 -12 -9 -16 5 -21 23 -9 40 10 22 25 -11 9 -17 8 -27
-4z"/>
<path d="M5920 5086 c0 -20 5 -26 21 -26 15 0 20 5 17 22 -5 34 -38 37 -38 4z"/>
<path d="M8413 5093 c-4 -9 -2 -18 5 -21 6 -2 9 -9 6 -16 -3 -8 2 -16 10 -19
9 -4 16 -13 16 -22 0 -12 -4 -14 -19 -5 -11 5 -29 10 -40 10 -21 0 -61 -44
-61 -67 0 -17 32 -31 38 -15 3 9 9 9 23 1 28 -15 59 8 84 60 11 22 27 41 35
42 8 1 20 2 25 4 6 1 16 3 23 3 16 3 16 32 -1 32 -8 0 -17 -3 -21 -7 -22 -22
-82 -11 -89 17 -6 24 -25 26 -34 3z"/>
<path d="M8798 5092 c-11 -13 -10 -15 5 -9 11 4 17 1 17 -9 0 -10 8 -14 23
-12 31 4 28 30 -5 39 -19 5 -31 3 -40 -9z"/>
<path d="M6800 5090 c0 -5 7 -10 15 -10 8 0 15 5 15 10 0 6 -7 10 -15 10 -8 0
-15 -4 -15 -10z"/>
<path d="M8902 5084 c4 -21 22 -23 26 -1 2 10 -3 17 -13 17 -10 0 -15 -6 -13
-16z"/>
<path d="M6125 5060 c-9 -15 4 -50 20 -50 16 0 29 35 20 50 -3 5 -12 10 -20
10 -8 0 -17 -5 -20 -10z"/>
<path d="M6180 5055 c0 -9 5 -15 11 -13 6 2 11 8 11 13 0 5 -5 11 -11 13 -6 2
-11 -4 -11 -13z"/>
<path d="M7284 5055 c3 -9 6 -23 6 -31 0 -8 7 -14 16 -14 23 0 14 54 -10 58
-14 3 -17 0 -12 -13z"/>
<path d="M8571 5046 c-14 -16 1 -56 20 -56 6 0 8 4 4 9 -3 5 -1 12 5 16 15 9
12 45 -4 45 -7 0 -19 -6 -25 -14z"/>
<path d="M8780 5051 c0 -6 4 -12 10 -16 5 -3 6 -13 3 -23 -4 -10 2 -7 14 8 12
14 19 28 16 32 -6 11 -43 10 -43 -1z"/>
<path d="M8628 5019 c-25 -14 -22 -26 6 -26 18 0 22 4 19 18 -3 11 -6 19 -7
19 0 0 -9 -5 -18 -11z"/>
<path d="M6964 5009 c-10 -17 13 -36 27 -22 12 12 4 33 -11 33 -5 0 -12 -5
-16 -11z"/>
<path d="M7135 4990 c-4 -12 -1 -27 5 -35 14 -17 20 -18 40 -5 12 7 12 12 0
34 -16 31 -36 34 -45 6z"/>
<path d="M6426 4984 c-9 -23 -8 -24 14 -24 24 0 26 -16 4 -28 -14 -8 -14 -10
4 -14 12 -3 29 0 39 8 17 13 17 15 1 28 -10 7 -18 21 -18 30 0 21 -36 21 -44
0z"/>
<path d="M7645 4990 c-3 -5 -2 -10 4 -10 5 0 13 5 16 10 3 6 2 10 -4 10 -5 0
-13 -4 -16 -10z"/>
<path d="M8885 4990 c-3 -5 1 -10 9 -10 9 0 16 5 16 10 0 6 -4 10 -9 10 -6 0
-13 -4 -16 -10z"/>
<path d="M3336 4982 c-3 -6 -1 -14 5 -17 15 -10 25 3 12 16 -7 7 -13 7 -17 1z"/>
<path d="M8550 4970 c0 -13 5 -20 13 -17 6 2 12 10 12 17 0 7 -6 15 -12 18 -8
2 -13 -5 -13 -18z"/>
<path d="M8246 4961 c-11 -12 -16 -31 -14 -52 2 -28 8 -34 33 -39 41 -9 76
-32 71 -47 -8 -19 33 -27 52 -10 9 8 23 12 30 10 6 -3 12 3 12 12 0 13 -7 15
-37 9 -32 -6 -36 -5 -27 7 22 27 23 57 3 62 -11 3 -17 1 -14 -3 3 -5 -4 -14
-16 -20 -19 -10 -20 -10 -14 9 8 25 -10 61 -30 61 -8 0 -15 5 -15 10 0 16 -15
12 -34 -9z"/>
<path d="M8835 4970 c-8 -13 3 -30 21 -30 18 0 18 14 0 29 -10 8 -16 9 -21 1z"/>
<path d="M6295 4961 c-3 -6 -15 -11 -26 -11 -21 0 -23 -7 -9 -30 13 -21 65 -1
65 24 0 22 -20 33 -30 17z"/>
<path d="M7029 4968 c0 -2 -2 -16 -4 -32 -2 -16 -10 -33 -17 -37 -9 -6 -8 -10
6 -15 12 -5 22 -2 27 9 5 9 16 23 24 31 13 13 13 16 -1 30 -13 14 -33 21 -35
14z"/>
<path d="M7640 4960 c-12 -7 -12 -12 4 -29 16 -18 17 -23 5 -37 -12 -14 -11
-16 6 -12 11 2 19 10 18 16 -2 7 2 12 7 12 14 0 13 33 -2 48 -14 14 -18 15
-38 2z"/>
<path d="M7090 4952 c0 -10 49 -62 58 -62 35 1 37 40 2 40 -10 0 -20 7 -24 15
-5 15 -36 21 -36 7z"/>
<path d="M8903 4953 c-18 -6 -16 -33 1 -33 19 0 31 19 20 30 -5 4 -15 5 -21 3z"/>
<path d="M8963 4937 c-1 -29 28 -50 55 -40 17 7 15 23 -3 23 -8 0 -15 5 -15
10 0 6 -6 10 -14 10 -8 0 -16 6 -19 13 -2 6 -4 -1 -4 -16z"/>
<path d="M8854 4916 c-4 -10 -2 -22 4 -28 6 -6 8 -16 6 -23 -3 -7 -1 -16 5
-20 7 -4 10 8 8 34 -3 45 -13 62 -23 37z"/>
<path d="M7440 4896 c0 -8 4 -17 9 -20 11 -7 33 18 24 27 -12 12 -33 7 -33 -7z"/>
<path d="M8738 4886 c-6 -15 -8 -29 -5 -32 12 -12 37 5 37 25 0 31 -19 35 -32
7z"/>
<path d="M3535 4880 c3 -5 8 -10 11 -10 2 0 4 5 4 10 0 6 -5 10 -11 10 -5 0
-7 -4 -4 -10z"/>
<path d="M8430 4875 c12 -15 30 -12 30 6 0 5 -10 9 -21 9 -18 0 -19 -2 -9 -15z"/>
<path d="M8970 4878 c0 -6 9 -12 20 -15 11 -3 20 -10 20 -15 0 -5 8 -7 18 -4
13 4 18 1 18 -14 0 -11 -5 -20 -10 -20 -5 0 -6 -3 -2 -7 4 -4 15 -8 24 -8 10
0 17 -8 17 -20 0 -11 6 -20 14 -20 24 0 23 21 -3 46 -19 18 -22 26 -13 40 18
28 -7 48 -59 47 -24 0 -44 -5 -44 -10z"/>
<path d="M8941 4871 c-7 -5 -10 -14 -7 -20 11 -17 22 -13 22 9 0 11 0 20 -1
20 0 0 -6 -4 -14 -9z"/>
<path d="M4745 4860 c-3 -5 1 -10 10 -10 9 0 13 5 10 10 -3 6 -8 10 -10 10 -2
0 -7 -4 -10 -10z"/>
<path d="M6400 4861 c0 -10 30 -24 37 -17 3 3 2 9 -2 15 -8 13 -35 15 -35 2z"/>
<path d="M1170 4835 c0 -8 7 -15 15 -15 8 0 15 7 15 15 0 8 -7 15 -15 15 -8 0
-15 -7 -15 -15z"/>
<path d="M7660 4835 c0 -8 7 -15 15 -15 8 0 15 7 15 15 0 8 -7 15 -15 15 -8 0
-15 -7 -15 -15z"/>
<path d="M744 4829 c-10 -17 13 -36 27 -22 12 12 4 33 -11 33 -5 0 -12 -5 -16
-11z"/>
<path d="M7300 4831 c0 -6 4 -12 9 -15 13 -8 42 4 35 15 -7 12 -44 12 -44 0z"/>
<path d="M8200 4822 c0 -47 50 -68 73 -30 15 23 -8 48 -44 48 -21 0 -29 -5
-29 -18z"/>
<path d="M8650 4830 c-11 -7 -12 -12 -3 -21 13 -13 33 -4 33 17 0 16 -9 18
-30 4z"/>
<path d="M8700 4820 c0 -5 5 -10 10 -10 6 0 10 5 10 10 0 6 -4 10 -10 10 -5 0
-10 -4 -10 -10z"/>
<path d="M8855 4799 c-10 -15 1 -23 20 -15 9 3 13 10 10 16 -8 13 -22 13 -30
-1z"/>
<path d="M7475 4780 c-4 -7 -3 -16 3 -22 14 -14 45 -2 40 15 -6 16 -34 21 -43
7z"/>
<path d="M8801 4781 c-8 -5 -11 -16 -8 -25 4 -9 2 -16 -2 -16 -5 0 -7 -9 -4
-20 6 -22 13 -21 17 2 1 7 7 23 14 35 19 34 13 43 -17 24z"/>
<path d="M8285 4763 c-7 -20 -7 -20 17 -42 20 -19 22 -19 34 -3 7 9 14 26 14
38 0 16 -6 21 -30 21 -16 0 -32 -7 -35 -14z"/>
<path d="M9133 4734 c-16 -17 -17 -44 -1 -44 6 0 8 3 5 6 -3 4 -2 15 4 26 13
24 8 31 -8 12z"/>
<path d="M8407 4733 c-17 -16 -6 -54 18 -65 33 -15 32 -24 -5 -31 -16 -4 -30
-13 -30 -20 0 -16 32 -47 48 -47 14 0 34 35 24 45 -4 3 2 13 12 21 15 10 16
16 7 27 -6 8 -8 22 -5 32 11 28 -47 60 -69 38z"/>
<path d="M8740 4724 c0 -8 5 -12 10 -9 6 3 10 10 10 16 0 5 -4 9 -10 9 -5 0
-10 -7 -10 -16z"/>
<path d="M8597 4724 c-8 -9 -9 -64 -1 -64 13 0 35 31 32 47 -3 18 -20 27 -31
17z"/>
<path d="M8670 4685 c-11 -13 -8 -15 14 -15 16 0 26 5 26 15 0 8 -6 15 -14 15
-7 0 -19 -7 -26 -15z"/>
<path d="M8818 4663 c-22 -5 -23 -17 -4 -32 17 -15 48 -3 44 17 -3 17 -15 22
-40 15z"/>
<path d="M8507 4643 c-13 -12 -7 -25 6 -14 8 6 18 7 22 3 5 -4 5 -1 1 6 -8 13
-19 16 -29 5z"/>
<path d="M8564 4635 c-7 -17 2 -45 13 -45 24 1 35 18 24 39 -14 25 -29 27 -37
6z"/>
<path d="M8677 4634 c-11 -11 3 -24 24 -24 12 0 19 5 17 13 -5 14 -31 21 -41
11z"/>
<path d="M8234 4616 c-14 -11 -16 -18 -8 -26 17 -17 54 -2 54 21 0 23 -19 25
-46 5z"/>
<path d="M8785 4622 c-5 -4 -16 -18 -23 -31 -12 -20 -12 -25 0 -32 26 -17 41
-10 37 17 0 4 5 10 13 15 11 7 10 11 -2 23 -8 9 -19 12 -25 8z"/>
<path d="M8695 4580 c-3 -5 -2 -10 4 -10 5 0 13 5 16 10 3 6 2 10 -4 10 -5 0
-13 -4 -16 -10z"/>
<path d="M7897 4544 c-9 -10 2 -24 19 -24 8 0 14 7 14 15 0 15 -21 21 -33 9z"/>
<path d="M8700 4530 c0 -6 4 -10 9 -10 5 0 8 -8 7 -17 0 -12 6 -18 18 -18 31
0 29 18 -4 37 -17 9 -30 13 -30 8z"/>
<path d="M8657 4524 c-4 -4 -7 -14 -7 -23 0 -11 3 -12 11 -4 6 6 10 16 7 23
-2 6 -7 8 -11 4z"/>
<path d="M8200 4495 c-8 -9 -8 -15 -2 -15 12 0 26 19 19 26 -2 2 -10 -2 -17
-11z"/>
<path d="M8375 4501 c-6 -11 9 -23 19 -14 9 9 7 23 -3 23 -6 0 -12 -4 -16 -9z"/>
<path d="M8463 4474 c-7 -18 17 -38 31 -24 11 11 1 40 -14 40 -6 0 -13 -7 -17
-16z"/>
<path d="M8690 4460 c0 -5 7 -7 15 -4 8 4 15 8 15 10 0 2 -7 4 -15 4 -8 0 -15
-4 -15 -10z"/>
<path d="M8584 4429 c-3 -6 -1 -16 5 -22 9 -9 14 -8 21 3 9 15 4 30 -10 30 -5
0 -12 -5 -16 -11z"/>
<path d="M8440 4415 c0 -8 7 -15 15 -15 8 0 15 7 15 15 0 8 -7 15 -15 15 -8 0
-15 -7 -15 -15z"/>
<path d="M8678 4414 c12 -8 27 -12 32 -9 17 10 1 25 -28 25 l-26 0 22 -16z"/>
<path d="M8835 4420 c-3 -5 -2 -10 4 -10 5 0 13 5 16 10 3 6 2 10 -4 10 -5 0
-13 -4 -16 -10z"/>
<path d="M7607 4403 c-4 -3 -7 -15 -7 -25 0 -13 8 -18 30 -18 35 0 41 23 11
40 -23 12 -26 12 -34 3z"/>
<path d="M8295 4390 c3 -5 10 -10 16 -10 5 0 9 5 9 10 0 6 -7 10 -16 10 -8 0
-12 -4 -9 -10z"/>
<path d="M8530 4385 c0 -8 7 -15 15 -15 8 0 15 7 15 15 0 8 -7 15 -15 15 -8 0
-15 -7 -15 -15z"/>
<path d="M8683 4386 c1 -6 -6 -10 -15 -8 -9 1 -19 -2 -23 -8 -5 -8 -11 -8 -20
0 -9 7 -16 6 -26 -6 -20 -24 8 -37 38 -17 12 8 30 13 38 9 20 -7 45 3 45 19 0
7 -9 15 -20 18 -11 3 -18 0 -17 -7z"/>
<path d="M8762 4378 c-19 -19 -15 -48 8 -48 11 0 20 6 20 14 0 8 3 21 6 30 7
19 -16 22 -34 4z"/>
<path d="M8857 4383 c-14 -13 -6 -33 13 -33 11 0 20 4 20 9 0 13 -26 32 -33
24z"/>
<path d="M7945 4370 c-3 -5 1 -10 9 -10 9 0 16 5 16 10 0 6 -4 10 -9 10 -6 0
-13 -4 -16 -10z"/>
<path d="M8700 4330 c-13 -9 -12 -13 5 -26 20 -16 20 -16 -2 -9 -29 8 -30 -10
-3 -25 28 -15 38 -6 36 32 -2 34 -13 43 -36 28z"/>
<path d="M8984 4325 c-10 -26 6 -38 27 -19 10 9 16 21 13 25 -8 14 -34 10 -40
-6z"/>
<path d="M8865 4313 c-15 -34 -15 -53 0 -53 8 0 19 10 26 21 9 17 8 24 -4 36
-12 13 -15 12 -22 -4z"/>
<path d="M8930 4319 c0 -5 5 -7 10 -4 6 3 10 8 10 11 0 2 -4 4 -10 4 -5 0 -10
-5 -10 -11z"/>
<path d="M8516 4301 c-4 -7 -5 -15 -2 -18 9 -9 19 4 14 18 -4 11 -6 11 -12 0z"/>
<path d="M8566 4294 c-10 -26 -7 -44 8 -44 8 0 12 -8 9 -23 -6 -31 31 -66 55
-50 9 6 16 18 16 27 -1 9 2 16 7 16 5 0 6 7 3 15 -4 8 -10 15 -16 15 -5 0 -6
-4 -3 -10 3 -5 0 -7 -8 -4 -9 3 -13 13 -10 25 10 38 -47 70 -61 33z"/>
<path d="M8944 4298 c-12 -17 -14 -78 -3 -78 4 0 11 5 14 10 4 6 11 7 17 4 7
-4 6 -9 -2 -14 -14 -9 -7 -40 9 -40 5 0 11 12 14 26 4 22 -1 28 -25 39 -28 11
-29 12 -8 18 14 4 21 12 18 23 -4 22 -24 29 -34 12z"/>
<path d="M8445 4280 c-4 -6 0 -21 9 -34 14 -22 14 -24 -4 -19 -24 6 -27 -15
-5 -24 14 -5 14 -7 1 -22 -9 -10 -17 -32 -19 -51 -2 -18 -12 -39 -23 -47 -10
-7 -20 -26 -22 -42 -6 -55 75 -106 107 -67 10 12 9 19 -6 33 -23 23 -40 60
-46 96 -3 22 -2 25 9 16 20 -17 47 -3 41 21 -3 13 0 20 9 20 17 0 18 16 1 27
-7 5 -12 27 -12 53 0 34 -4 45 -17 48 -9 2 -19 -2 -23 -8z"/>
<path d="M8785 4260 c-4 -7 -3 -16 3 -22 14 -14 45 -2 40 15 -6 16 -34 21 -43
7z"/>
<path d="M8680 4235 c0 -8 7 -15 15 -15 8 0 15 7 15 15 0 8 -7 15 -15 15 -8 0
-15 -7 -15 -15z"/>
<path d="M8507 4233 c-14 -13 -6 -33 13 -33 13 0 20 7 20 20 0 19 -20 27 -33
13z"/>
<path d="M8866 4224 c-8 -22 -9 -21 15 -27 12 -3 18 -10 14 -16 -10 -17 21
-13 35 4 14 17 4 39 -16 31 -8 -3 -14 1 -14 9 0 20 -26 19 -34 -1z"/>
<path d="M9022 4216 c1 -10 8 -17 13 -17 15 1 12 24 -3 29 -9 3 -13 -2 -10
-12z"/>
<path d="M7730 4206 c0 -8 4 -17 9 -20 10 -7 23 19 14 28 -11 11 -23 6 -23 -8z"/>
<path d="M6750 4170 c0 -5 9 -10 21 -10 11 0 17 5 14 10 -3 6 -13 10 -21 10
-8 0 -14 -4 -14 -10z"/>
<path d="M7936 4161 c-4 -7 -5 -15 -2 -18 9 -9 19 4 14 18 -4 11 -6 11 -12 0z"/>
<path d="M6965 4150 c3 -5 10 -10 16 -10 5 0 9 5 9 10 0 6 -7 10 -16 10 -8 0
-12 -4 -9 -10z"/>
<path d="M7570 4145 c0 -9 5 -15 11 -13 6 2 11 8 11 13 0 5 -5 11 -11 13 -6 2
-11 -4 -11 -13z"/>
<path d="M8595 4150 c3 -5 8 -10 11 -10 2 0 4 5 4 10 0 6 -5 10 -11 10 -5 0
-7 -4 -4 -10z"/>
<path d="M8902 4144 c2 -11 11 -20 22 -22 13 -3 17 1 14 14 -2 11 -11 20 -22
22 -13 3 -17 -1 -14 -14z"/>
<path d="M8210 4126 c0 -27 26 -42 46 -25 18 15 0 49 -26 49 -14 0 -20 -7 -20
-24z"/>
<path d="M8980 4140 c-12 -8 -12 -10 3 -16 21 -8 35 2 21 16 -5 5 -15 6 -24 0z"/>
<path d="M8855 4130 c4 -6 11 -8 16 -5 14 9 11 15 -7 15 -8 0 -12 -5 -9 -10z"/>
<path d="M7735 4120 c-3 -5 -1 -10 4 -10 6 0 11 5 11 10 0 6 -2 10 -4 10 -3 0
-8 -4 -11 -10z"/>
<path d="M6897 4103 c-12 -11 -8 -23 8 -23 8 0 15 7 15 15 0 16 -12 20 -23 8z"/>
<path d="M8564 4096 c-3 -7 -4 -17 -3 -22 4 -21 -2 -26 -18 -13 -14 12 -15 12
-10 -1 4 -8 10 -23 13 -33 9 -24 29 -16 29 11 0 12 6 27 13 34 16 16 15 25 -3
32 -9 3 -18 0 -21 -8z"/>
<path d="M8835 4081 c-3 -6 -1 -11 6 -11 6 0 18 -8 25 -17 16 -22 32 -8 18 15
-13 20 -40 27 -49 13z"/>
<path d="M9036 4076 c3 -8 -3 -12 -17 -12 -26 1 -37 -21 -15 -30 10 -4 24 2
35 14 13 16 21 18 29 10 8 -8 12 -8 12 -2 0 6 -11 16 -25 22 -19 9 -23 8 -19
-2z"/>
<path d="M8940 4056 c0 -17 14 -29 23 -20 8 8 -3 34 -14 34 -5 0 -9 -6 -9 -14z"/>
<path d="M7525 4051 c-3 -5 -1 -12 5 -16 12 -7 30 2 30 16 0 12 -27 12 -35 0z"/>
<path d="M8810 4050 c0 -5 5 -10 10 -10 6 0 10 5 10 10 0 6 -4 10 -10 10 -5 0
-10 -4 -10 -10z"/>
<path d="M7195 4029 c-11 -17 1 -21 15 -4 8 9 8 15 2 15 -6 0 -14 -5 -17 -11z"/>
<path d="M8730 4030 c0 -5 7 -10 16 -10 8 0 12 5 9 10 -3 6 -10 10 -16 10 -5
0 -9 -4 -9 -10z"/>
<path d="M8967 4003 c-16 -4 -15 -7 8 -19 29 -15 45 -11 45 12 0 14 -17 16
-53 7z"/>
<path d="M8869 3979 c-16 -30 2 -46 36 -31 14 6 25 17 25 24 0 10 -2 10 -9 0
-6 -10 -10 -9 -14 7 -7 27 -23 27 -38 0z"/>
<path d="M8582 3973 c2 -10 10 -18 18 -18 22 0 18 29 -3 33 -14 3 -18 -1 -15
-15z"/>
<path d="M7747 3974 c-8 -8 1 -24 14 -24 5 0 9 7 9 15 0 15 -12 20 -23 9z"/>
<path d="M7606 3951 c-11 -12 -15 -27 -11 -40 3 -11 -1 -33 -9 -50 -14 -27
-14 -31 3 -53 l19 -23 26 28 c22 24 25 34 21 82 -6 79 -17 92 -49 56z"/>
<path d="M8944 3945 c-9 -23 4 -34 36 -32 17 1 30 3 30 5 0 1 -9 11 -20 22
-24 24 -39 25 -46 5z"/>
<path d="M7176 3915 c-28 -26 -26 -55 3 -55 24 0 41 20 41 46 0 34 -14 37 -44
9z"/>
<path d="M8585 3930 c3 -5 13 -10 21 -10 8 0 14 5 14 10 0 6 -9 10 -21 10 -11
0 -17 -4 -14 -10z"/>
<path d="M8682 3913 c2 -10 10 -18 18 -18 22 0 18 29 -3 33 -14 3 -18 -1 -15
-15z"/>
<path d="M7500 3912 c0 -6 4 -13 10 -17 5 -3 7 -12 3 -20 -3 -8 0 -15 6 -15
16 0 13 36 -4 50 -9 8 -15 9 -15 2z"/>
<path d="M8872 3903 c4 -21 33 -25 33 -3 0 8 -8 16 -18 18 -14 3 -18 -1 -15
-15z"/>
<path d="M9410 3900 c0 -23 25 -27 33 -6 7 16 -1 26 -20 26 -7 0 -13 -9 -13
-20z"/>
<path d="M8538 3893 c-31 -16 -36 -31 -12 -40 19 -7 63 33 49 45 -6 5 -22 3
-37 -5z"/>
<path d="M6834 3876 c-7 -27 10 -66 29 -66 20 0 37 21 37 45 0 46 -55 63 -66
21z"/>
<path d="M9005 3890 c-8 -14 3 -30 21 -30 8 0 14 9 14 20 0 21 -24 28 -35 10z"/>
<path d="M8932 3868 c-16 -16 -15 -31 2 -25 8 3 19 -5 26 -19 15 -28 28 -31
36 -9 4 10 13 13 26 9 14 -4 18 -2 14 5 -4 6 -13 11 -21 11 -7 0 -17 9 -20 20
-7 22 -35 28 -35 8 0 -10 -2 -10 -8 -1 -6 10 -11 10 -20 1z"/>
<path d="M8818 3863 c7 -3 16 -2 19 1 4 3 -2 6 -13 5 -11 0 -14 -3 -6 -6z"/>
<path d="M7753 3844 c-4 -10 -2 -19 4 -21 6 -2 9 -13 6 -23 -5 -19 10 -26 41
-21 4 1 14 -4 22 -10 11 -9 14 -8 14 2 0 8 9 20 20 27 26 16 15 35 -16 29 -14
-2 -24 1 -24 7 0 6 -6 2 -12 -9 -12 -19 -12 -19 -18 4 -7 30 -28 39 -37 15z"/>
<path d="M8850 3830 c-8 -5 -10 -10 -5 -11 6 0 1 -4 -10 -9 -13 -6 -15 -9 -5
-9 21 -1 43 15 39 28 -3 7 -9 7 -19 1z"/>
<path d="M8110 3820 c0 -5 7 -10 15 -10 8 0 15 5 15 10 0 6 -7 10 -15 10 -8 0
-15 -4 -15 -10z"/>
<path d="M8510 3820 c-13 -9 -13 -11 0 -20 29 -19 58 -7 39 17 -13 15 -19 16
-39 3z"/>
<path d="M8594 3815 c-9 -22 4 -35 37 -35 22 0 29 5 29 19 0 30 -56 44 -66 16z"/>
<path d="M8701 3816 c-9 -11 -8 -15 5 -20 23 -9 38 8 21 23 -11 9 -17 8 -26
-3z"/>
<path d="M8437 3781 c-9 -18 -11 -33 -5 -39 6 -6 -4 -16 -26 -26 -35 -16 -51
-34 -21 -22 8 3 15 1 15 -4 0 -6 -6 -10 -14 -10 -19 0 -47 -46 -40 -65 4 -8
15 -20 25 -26 25 -13 24 -31 -1 -47 -24 -14 -26 -47 -5 -68 13 -14 17 -14 31
0 8 9 22 16 29 16 8 0 18 15 23 33 8 29 6 33 -19 42 -27 10 -27 10 -9 33 12
15 24 21 32 16 10 -6 9 -3 -1 9 -7 9 -17 14 -22 11 -5 -3 -6 2 -3 9 3 8 14 17
25 20 16 4 18 11 13 32 -6 24 -4 26 12 21 23 -7 88 30 79 44 -7 11 -49 34 -82
44 -17 5 -24 1 -36 -23z"/>
<path d="M8102 3783 c2 -10 14 -20 27 -21 19 -3 22 0 17 13 -3 9 -6 19 -6 21
0 2 -9 4 -21 4 -14 0 -19 -5 -17 -17z"/>
<path d="M8948 3765 c-6 -13 -18 -26 -27 -28 -10 -3 -8 -5 7 -6 12 0 22 4 22
9 0 6 11 15 25 20 30 11 33 30 5 30 -12 0 -25 -10 -32 -25z"/>
<path d="M8332 3768 c-16 -16 -15 -48 2 -48 20 0 39 27 32 45 -7 18 -18 19
-34 3z"/>
<path d="M6032 3757 c-17 -20 -12 -40 6 -28 8 5 12 16 10 26 -3 17 -4 17 -16
2z"/>
<path d="M6728 3749 c-23 -13 -11 -39 18 -39 26 0 32 21 11 38 -8 7 -18 7 -29
1z"/>
<path d="M7975 3750 c-7 -12 2 -30 16 -30 5 0 9 9 9 20 0 21 -15 27 -25 10z"/>
<path d="M8282 3738 c6 -18 28 -21 28 -4 0 9 -7 16 -16 16 -9 0 -14 -5 -12
-12z"/>
<path d="M7886 3717 c-21 -15 -14 -57 8 -57 19 0 38 26 34 46 -4 23 -20 27
-42 11z"/>
<path d="M7408 3686 c-17 -40 26 -120 47 -86 3 6 3 15 -1 22 -4 7 -9 23 -11
37 -5 47 -6 51 -15 51 -5 0 -13 -11 -20 -24z"/>
<path d="M7840 3691 c0 -5 5 -13 10 -16 6 -3 10 -2 10 4 0 5 -4 13 -10 16 -5
3 -10 2 -10 -4z"/>
<path d="M8143 3687 c-4 -6 -1 -13 5 -15 7 -2 19 -11 27 -19 12 -12 19 -12 30
-3 13 10 12 14 -2 28 -19 20 -51 24 -60 9z"/>
<path d="M7617 3674 c-13 -13 -7 -24 14 -24 11 0 19 5 17 12 -5 14 -22 21 -31
12z"/>
<path d="M7983 3669 c-27 -10 -29 -30 -6 -65 13 -21 14 -27 3 -34 -7 -4 -9
-13 -6 -19 4 -6 0 -11 -8 -11 -9 0 -16 -6 -16 -14 0 -17 26 -40 34 -28 3 5 19
7 36 4 28 -4 30 -2 30 25 0 16 -4 33 -10 39 -6 6 -6 22 0 44 6 19 10 38 10 41
0 13 -46 26 -67 18z"/>
<path d="M8095 3670 c3 -5 8 -10 11 -10 2 0 4 5 4 10 0 6 -5 10 -11 10 -5 0
-7 -4 -4 -10z"/>
<path d="M8913 3673 c7 -11 67 -16 67 -5 0 4 -16 9 -36 10 -20 2 -33 -1 -31
-5z"/>
<path d="M6575 3649 c-4 -6 -4 -13 -1 -16 8 -8 36 5 36 17 0 13 -27 13 -35 -1z"/>
<path d="M7631 3622 c-11 -21 3 -52 24 -52 9 0 15 9 15 21 0 15 5 19 15 15 18
-7 20 10 3 21 -24 15 -47 13 -57 -5z"/>
<path d="M8761 3624 c0 -11 3 -14 6 -6 3 7 2 16 -1 19 -3 4 -6 -2 -5 -13z"/>
<path d="M8910 3626 c0 -14 24 -29 33 -19 3 3 3 11 0 19 -7 18 -33 18 -33 0z"/>
<path d="M8606 3611 c-4 -5 -2 -12 3 -15 5 -4 12 -2 15 3 4 5 2 12 -3 15 -5 4
-12 2 -15 -3z"/>
<path d="M8114 3602 c-6 -4 -19 -22 -28 -40 -13 -25 -15 -37 -6 -47 9 -11 15
-10 31 6 10 10 24 19 29 19 11 0 13 30 4 54 -7 18 -13 19 -30 8z"/>
<path d="M8200 3595 c0 -11 7 -15 23 -13 12 2 22 8 22 13 0 6 -10 11 -22 13
-16 2 -23 -2 -23 -13z"/>
<path d="M6685 3590 c3 -5 13 -10 21 -10 8 0 14 5 14 10 0 6 -9 10 -21 10 -11
0 -17 -4 -14 -10z"/>
<path d="M7857 3594 c-10 -10 12 -44 28 -44 18 0 20 21 3 38 -13 13 -22 15
-31 6z"/>
<path d="M8267 3575 c-11 -8 -17 -23 -15 -37 2 -19 9 -23 41 -25 20 0 37 3 37
9 0 5 -4 6 -10 3 -5 -3 -11 3 -11 14 -3 40 -4 44 -14 47 -5 2 -18 -3 -28 -11z"/>
<path d="M8920 3571 c0 -5 5 -13 10 -16 6 -3 10 -2 10 4 0 5 -4 13 -10 16 -5
3 -10 2 -10 -4z"/>
<path d="M7455 3560 c-11 -18 13 -36 31 -25 9 6 16 15 17 20 3 14 -40 18 -48
5z"/>
<path d="M7164 3545 c-8 -19 3 -35 26 -35 22 0 33 23 17 39 -15 15 -37 14 -43
-4z"/>
<path d="M7742 3545 c-12 -9 -22 -22 -22 -30 0 -10 -6 -12 -17 -8 -16 6 -16 5
-4 -10 7 -9 22 -17 32 -17 11 0 19 -4 19 -10 0 -5 9 -10 20 -10 24 0 39 29 20
40 -7 4 -10 12 -7 17 4 6 1 18 -6 27 -11 15 -14 15 -35 1z"/>
<path d="M8803 3518 c2 -7 10 -12 16 -10 7 1 10 -1 7 -6 -7 -11 20 -49 28 -41
10 10 -25 69 -41 69 -8 0 -13 -6 -10 -12z"/>
<path d="M7855 3510 c-3 -5 -2 -10 4 -10 5 0 13 5 16 10 3 6 2 10 -4 10 -5 0
-13 -4 -16 -10z"/>
<path d="M8970 3505 c-10 -12 -10 -19 -2 -27 15 -15 48 14 38 31 -10 15 -21
14 -36 -4z"/>
<path d="M7651 3497 c-6 -8 -8 -17 -4 -20 7 -8 33 11 33 24 0 13 -16 11 -29
-4z"/>
<path d="M8599 3494 c-12 -14 -11 -16 5 -13 11 2 21 10 24 17 5 17 -13 15 -29
-4z"/>
<path d="M8860 3496 c0 -21 21 -31 30 -15 5 7 6 17 4 21 -9 14 -34 9 -34 -6z"/>
<path d="M7662 3464 c-12 -21 -4 -52 18 -74 36 -36 67 20 40 71 -13 23 -46 25
-58 3z"/>
<path d="M8642 3464 c-7 -13 -13 -14 -31 -5 -18 10 -21 9 -21 -7 0 -10 -5 -23
-12 -30 -9 -9 -8 -16 5 -29 13 -13 20 -14 28 -6 9 9 16 9 30 0 24 -15 39 1 16
18 -16 12 -16 13 4 26 13 9 18 20 14 32 -9 21 -21 22 -33 1z"/>
<path d="M9016 3465 c4 -8 12 -15 20 -15 8 0 14 7 14 15 0 8 -9 15 -20 15 -13
0 -18 -5 -14 -15z"/>
<path d="M7869 3454 c-12 -14 -11 -16 5 -13 11 2 21 10 24 17 5 17 -13 15 -29
-4z"/>
<path d="M8786 3461 c-3 -4 0 -16 7 -25 12 -16 14 -16 26 -2 7 8 10 20 6 26
-8 12 -32 13 -39 1z"/>
<path d="M8867 3434 c-14 -14 -7 -35 11 -32 9 2 17 10 17 17 0 16 -18 25 -28
15z"/>
<path d="M4170 3410 c0 -5 5 -10 10 -10 6 0 10 5 10 10 0 6 -4 10 -10 10 -5 0
-10 -4 -10 -10z"/>
<path d="M6910 3405 c0 -8 5 -15 10 -15 6 0 10 7 10 15 0 8 -4 15 -10 15 -5 0
-10 -7 -10 -15z"/>
<path d="M7355 3411 c-9 -8 -5 -41 4 -41 5 0 11 -10 13 -22 3 -24 25 -33 45
-20 8 5 10 22 6 50 -5 39 -8 42 -35 40 -16 -1 -31 -4 -33 -7z"/>
<path d="M7870 3405 c7 -8 19 -15 26 -15 8 0 14 7 14 15 0 10 -10 15 -26 15
-22 0 -25 -2 -14 -15z"/>
<path d="M7990 3410 c0 -5 5 -10 10 -10 6 0 10 5 10 10 0 6 -4 10 -10 10 -5 0
-10 -4 -10 -10z"/>
<path d="M8750 3400 c0 -5 -7 -10 -16 -10 -11 0 -14 -8 -12 -32 3 -35 22 -45
48 -28 13 9 13 12 -2 21 -22 12 -23 39 -2 39 8 0 12 5 9 10 -3 6 -10 10 -16
10 -5 0 -9 -4 -9 -10z"/>
<path d="M8786 3385 c-3 -8 -1 -15 4 -15 6 0 10 -7 10 -15 0 -17 35 -21 45 -5
3 6 -1 13 -9 16 -9 3 -16 12 -16 20 0 19 -26 18 -34 -1z"/>
<path d="M7867 3354 c-4 -4 -7 -16 -7 -26 0 -20 25 -25 36 -7 8 13 -19 43 -29
33z"/>
<path d="M7101 3336 c-13 -16 1 -56 19 -56 16 0 41 33 36 47 -3 8 -6 17 -6 19
0 10 -39 2 -49 -10z"/>
<path d="M6830 3330 c0 -5 5 -10 11 -10 5 0 7 5 4 10 -3 6 -8 10 -11 10 -2 0
-4 -4 -4 -10z"/>
<path d="M7831 3314 c0 -11 3 -14 6 -6 3 7 2 16 -1 19 -3 4 -6 -2 -5 -13z"/>
<path d="M8255 3320 c-3 -5 -1 -10 4 -10 6 0 11 5 11 10 0 6 -2 10 -4 10 -3 0
-8 -4 -11 -10z"/>
<path d="M8723 3303 c-21 -8 -15 -30 9 -37 25 -6 54 16 44 33 -7 11 -31 13
-53 4z"/>
<path d="M6800 3290 c0 -5 9 -10 21 -10 11 0 17 5 14 10 -3 6 -13 10 -21 10
-8 0 -14 -4 -14 -10z"/>
<path d="M2510 3274 c0 -17 22 -14 28 4 2 7 -3 12 -12 12 -9 0 -16 -7 -16 -16z"/>
<path d="M7620 3271 c0 -6 5 -13 10 -16 6 -3 10 1 10 9 0 9 -4 16 -10 16 -5 0
-10 -4 -10 -9z"/>
<path d="M8260 3270 c0 -5 9 -10 21 -10 11 0 17 5 14 10 -3 6 -13 10 -21 10
-8 0 -14 -4 -14 -10z"/>
<path d="M4400 3250 c0 -5 5 -10 10 -10 6 0 10 5 10 10 0 6 -4 10 -10 10 -5 0
-10 -4 -10 -10z"/>
<path d="M8806 3244 c-15 -14 -23 -54 -11 -54 15 0 57 49 51 59 -10 15 -22 14
-40 -5z"/>
<path d="M8630 3230 c0 -13 5 -20 13 -17 6 2 12 10 12 17 0 7 -6 15 -12 18 -8
2 -13 -5 -13 -18z"/>
<path d="M7350 3230 c0 -5 5 -10 10 -10 6 0 10 5 10 10 0 6 -4 10 -10 10 -5 0
-10 -4 -10 -10z"/>
<path d="M8870 3225 c0 -8 7 -15 15 -15 8 0 15 7 15 15 0 8 -7 15 -15 15 -8 0
-15 -7 -15 -15z"/>
<path d="M8677 3213 c-12 -12 -7 -22 8 -17 8 4 15 10 15 15 0 11 -14 12 -23 2z"/>
<path d="M8736 3192 c-6 -11 41 -38 50 -29 8 7 -20 37 -35 37 -5 0 -12 -4 -15
-8z"/>
<path d="M8660 3171 c0 -5 5 -13 10 -16 6 -3 10 -2 10 4 0 5 -4 13 -10 16 -5
3 -10 2 -10 -4z"/>
<path d="M8822 3154 c3 -17 21 -21 26 -6 1 5 -4 12 -13 16 -11 4 -15 1 -13
-10z"/>
<path d="M8625 3151 c-7 -12 12 -24 25 -16 11 7 4 25 -10 25 -5 0 -11 -4 -15
-9z"/>
<path d="M8866 3153 c-12 -12 -5 -23 14 -23 11 0 20 4 20 9 0 11 -26 22 -34
14z"/>
<path d="M7924 3141 c3 -5 -1 -12 -10 -15 -13 -5 -14 -9 -4 -21 15 -18 42 -19
58 -3 17 17 15 31 -3 24 -9 -3 -18 1 -21 9 -4 8 -10 15 -16 15 -5 0 -7 -4 -4
-9z"/>
<path d="M8747 3144 c-12 -12 6 -34 29 -34 22 0 23 2 12 20 -13 20 -29 26 -41
14z"/>
<path d="M8370 3130 c0 -5 5 -10 10 -10 6 0 10 5 10 10 0 6 -4 10 -10 10 -5 0
-10 -4 -10 -10z"/>
<path d="M8688 3114 c-12 -11 5 -44 23 -44 22 0 31 13 23 34 -6 15 -35 22 -46
10z"/>
<path d="M8012 3088 c2 -12 10 -24 18 -26 13 -5 13 -3 2 11 -8 9 -11 21 -7 27
3 5 1 10 -5 10 -6 0 -10 -10 -8 -22z"/>
<path d="M8940 3102 c0 -7 -7 -12 -16 -12 -8 0 -12 -4 -9 -10 3 -5 10 -10 15
-10 10 0 22 31 15 38 -3 3 -5 0 -5 -6z"/>
<path d="M8760 3080 c-11 -7 -12 -12 -3 -21 15 -15 43 -5 43 16 0 17 -18 19
-40 5z"/>
<path d="M8100 3065 c0 -8 5 -15 10 -15 6 0 10 7 10 15 0 8 -4 15 -10 15 -5 0
-10 -7 -10 -15z"/>
<path d="M8584 3069 c-8 -14 11 -33 25 -25 11 7 4 36 -9 36 -5 0 -12 -5 -16
-11z"/>
<path d="M8820 3070 c0 -5 7 -10 16 -10 8 0 12 5 9 10 -3 6 -10 10 -16 10 -5
0 -9 -4 -9 -10z"/>
<path d="M8662 3043 c2 -12 11 -17 23 -15 25 5 29 8 20 21 -11 19 -47 13 -43
-6z"/>
<path d="M8875 3050 c-11 -17 5 -32 21 -19 8 6 14 15 14 20 0 12 -27 11 -35
-1z"/>
<path d="M8729 3034 c-12 -14 -11 -16 5 -13 11 2 21 10 24 17 5 17 -13 15 -29
-4z"/>
<path d="M7973 3024 c-7 -19 11 -39 26 -30 16 10 13 33 -4 40 -9 3 -18 -1 -22
-10z"/>
<path d="M8092 3024 c9 -9 21 -13 27 -9 16 10 3 25 -22 25 -20 0 -20 -1 -5
-16z"/>
<path d="M8306 3033 c-11 -11 -6 -23 9 -23 8 0 15 4 15 9 0 13 -16 22 -24 14z"/>
<path d="M8768 3022 c-10 -2 -18 -10 -18 -18 0 -8 -4 -14 -10 -14 -5 0 -10 -4
-10 -10 0 -15 29 -12 46 5 20 19 14 42 -8 37z"/>
<path d="M7645 3011 c-3 -5 -1 -12 5 -16 12 -7 30 2 30 16 0 12 -27 12 -35 0z"/>
<path d="M8476 3013 c-11 -11 -7 -20 9 -20 8 0 15 4 15 8 0 11 -16 20 -24 12z"/>
<path d="M8835 3010 c-3 -5 -1 -10 4 -10 6 0 11 5 11 10 0 6 -2 10 -4 10 -3 0
-8 -4 -11 -10z"/>
<path d="M8640 3001 c0 -13 37 -24 52 -15 8 5 6 10 -8 15 -27 11 -44 11 -44 0z"/>
<path d="M8530 2981 c0 -6 5 -13 10 -16 6 -3 10 1 10 9 0 9 -4 16 -10 16 -5 0
-10 -4 -10 -9z"/>
<path d="M3400 2970 c0 -5 5 -10 10 -10 6 0 10 5 10 10 0 6 -4 10 -10 10 -5 0
-10 -4 -10 -10z"/>
<path d="M8255 2959 c-10 -15 3 -25 16 -12 7 7 7 13 1 17 -6 3 -14 1 -17 -5z"/>
<path d="M8634 2959 c-8 -14 11 -33 25 -25 6 4 11 11 11 16 0 13 -29 20 -36 9z"/>
<path d="M8580 2950 c0 -5 5 -10 10 -10 6 0 10 5 10 10 0 6 -4 10 -10 10 -5 0
-10 -4 -10 -10z"/>
<path d="M8991 2946 c-14 -17 -7 -36 14 -36 22 0 29 20 13 36 -13 13 -16 13
-27 0z"/>
<path d="M8757 2936 c-6 -16 1 -26 19 -26 7 0 10 8 7 20 -6 23 -19 26 -26 6z"/>
<path d="M8930 2930 c0 -12 7 -20 16 -20 13 0 14 -3 5 -13 -12 -15 -5 -27 16
-27 17 0 13 41 -6 64 -18 22 -31 20 -31 -4z"/>
<path d="M8470 2910 c0 -5 10 -10 23 -10 18 0 19 2 7 10 -19 13 -30 13 -30 0z"/>
<path d="M8202 2896 c1 -10 8 -17 13 -17 15 1 12 24 -3 29 -9 3 -13 -2 -10
-12z"/>
<path d="M4760 2886 c0 -9 5 -16 10 -16 6 0 10 4 10 9 0 6 -4 13 -10 16 -5 3
-10 -1 -10 -9z"/>
<path d="M8596 2884 c-8 -20 1 -34 20 -34 18 0 18 24 0 39 -11 9 -15 8 -20 -5z"/>
<path d="M8720 2885 c0 -8 5 -15 10 -15 6 0 10 7 10 15 0 8 -4 15 -10 15 -5 0
-10 -7 -10 -15z"/>
<path d="M9005 2890 c-3 -5 -1 -10 4 -10 6 0 11 -7 11 -15 0 -8 6 -15 14 -15
18 0 39 27 31 40 -8 13 -52 13 -60 0z"/>
<path d="M8125 2881 c-3 -5 -1 -12 5 -16 5 -3 10 1 10 9 0 18 -6 21 -15 7z"/>
<path d="M8305 2880 c-3 -6 1 -13 10 -16 19 -8 30 0 20 15 -8 14 -22 14 -30 1z"/>
<path d="M8872 2876 c1 -10 8 -17 13 -17 15 1 12 24 -3 29 -9 3 -13 -2 -10
-12z"/>
<path d="M8830 2873 c0 -5 4 -15 10 -23 11 -18 25 -7 17 15 -6 15 -27 21 -27
8z"/>
<path d="M8793 2853 c-20 -7 -15 -23 7 -23 11 0 20 4 20 9 0 13 -12 19 -27 14z"/>
<path d="M9053 2836 c-4 -5 -1 -6 5 -2 7 4 12 1 12 -9 0 -9 -4 -14 -9 -11 -5
3 -14 -1 -20 -8 -9 -11 -9 -16 1 -23 7 -4 13 -14 13 -22 0 -8 8 -19 17 -25 14
-8 22 -7 35 7 17 17 17 18 -5 23 -22 6 -32 44 -12 44 6 0 10 -5 10 -12 0 -6 3
-8 7 -5 3 4 11 0 17 -8 8 -10 16 -12 26 -5 12 7 12 12 2 22 -7 7 -17 14 -22
14 -6 1 -14 2 -20 3 -5 0 -7 7 -4 15 4 10 -2 14 -21 12 -15 0 -29 -5 -32 -10z"/>
<path d="M8251 2821 c-10 -17 -9 -21 3 -21 20 0 31 19 18 32 -7 7 -14 3 -21
-11z"/>
<path d="M8680 2825 c0 -8 7 -15 15 -15 8 0 15 7 15 15 0 8 -7 15 -15 15 -8 0
-15 -7 -15 -15z"/>
<path d="M8920 2825 c0 -8 5 -15 10 -15 6 0 10 7 10 15 0 8 -4 15 -10 15 -5 0
-10 -7 -10 -15z"/>
<path d="M8986 2823 c-11 -11 -6 -23 9 -23 8 0 15 4 15 9 0 13 -16 22 -24 14z"/>
<path d="M7830 2800 c0 -5 5 -10 10 -10 6 0 10 5 10 10 0 6 -4 10 -10 10 -5 0
-10 -4 -10 -10z"/>
<path d="M8755 2800 c-3 -6 1 -13 10 -16 19 -8 30 0 20 15 -8 14 -22 14 -30 1z"/>
<path d="M8347 2794 c-8 -8 1 -24 14 -24 5 0 9 7 9 15 0 15 -12 20 -23 9z"/>
<path d="M8855 2789 c-10 -15 3 -25 16 -12 7 7 7 13 1 17 -6 3 -14 1 -17 -5z"/>
<path d="M8507 2783 c-13 -12 -7 -33 8 -33 8 0 15 9 15 20 0 20 -11 26 -23 13z"/>
<path d="M8660 2770 c0 -5 5 -10 10 -10 6 0 10 5 10 10 0 6 -4 10 -10 10 -5 0
-10 -4 -10 -10z"/>
<path d="M8439 2758 c-1 -2 -3 -13 -4 -26 -2 -16 2 -22 14 -20 22 4 28 48 7
48 -9 0 -17 -1 -17 -2z"/>
<path d="M8915 2751 c-7 -12 12 -24 25 -16 11 7 4 25 -10 25 -5 0 -11 -4 -15
-9z"/>
<path d="M8995 2751 c-8 -15 3 -31 21 -31 9 0 14 7 12 17 -4 20 -24 28 -33 14z"/>
<path d="M8737 2733 c-13 -12 -7 -35 7 -30 8 3 17 -2 21 -11 4 -10 9 -12 13
-6 11 17 40 24 46 11 2 -7 5 -7 5 -1 1 5 -5 19 -13 29 -12 16 -16 17 -30 6
-12 -10 -19 -11 -29 -2 -8 6 -17 8 -20 4z"/>
<path d="M9093 2726 c-21 -10 -27 -22 -26 -53 1 -7 -3 -10 -8 -7 -14 8 -11
-30 3 -44 19 -19 27 -14 30 21 2 19 8 31 16 30 6 -2 12 2 12 7 0 6 7 10 15 10
8 0 15 6 15 13 0 21 -12 28 -27 15 -11 -8 -12 -7 -7 6 3 9 5 15 3 15 -2 -1
-14 -6 -26 -13z"/>
<path d="M7855 2709 c-4 -6 -5 -13 -2 -16 7 -7 27 6 27 18 0 12 -17 12 -25 -2z"/>
<path d="M8840 2711 c0 -17 18 -21 24 -6 3 9 0 15 -9 15 -8 0 -15 -4 -15 -9z"/>
<path d="M8540 2696 c0 -9 5 -16 10 -16 6 0 10 4 10 9 0 6 -4 13 -10 16 -5 3
-10 -1 -10 -9z"/>
<path d="M8610 2700 c0 -5 7 -10 15 -10 8 0 15 5 15 10 0 6 -7 10 -15 10 -8 0
-15 -4 -15 -10z"/>
<path d="M8928 2698 c-29 -10 -35 -22 -18 -33 12 -7 70 22 70 35 0 12 -16 12
-52 -2z"/>
<path d="M8645 2669 c-8 -12 14 -31 30 -26 6 2 10 10 10 18 0 17 -31 24 -40 8z"/>
<path d="M9023 2673 c-13 -2 -23 -11 -23 -19 0 -8 -12 -19 -26 -24 -27 -11
-28 -33 -2 -38 10 -2 18 7 22 23 4 16 12 25 22 23 9 -2 20 7 25 20 5 12 7 21
6 21 -1 -1 -12 -4 -24 -6z"/>
<path d="M8835 2657 c-4 -9 -14 -13 -26 -10 -12 3 -21 -1 -25 -11 -9 -24 2
-31 31 -18 14 7 25 8 25 2 0 -5 9 -14 20 -20 33 -18 37 15 6 46 -21 21 -27 24
-31 11z"/>
<path d="M8711 2646 c-10 -12 -8 -13 8 -9 12 3 21 9 21 14 0 14 -16 11 -29 -5z"/>
<path d="M7877 2614 c-8 -8 1 -24 14 -24 5 0 9 7 9 15 0 15 -12 20 -23 9z"/>
<path d="M0 400 l0 -400 5000 0 5000 0 0 400 0 400 -5000 0 -5000 0 0 -400z
m2192 123 c23 -20 23 -57 1 -74 -15 -11 -16 -11 -5 1 27 31 11 72 -33 83 -19
4 -19 5 -1 6 11 0 28 -6 38 -16z m-69 -8 c-3 -9 -8 -14 -10 -11 -3 3 -2 9 2
15 9 16 15 13 8 -4z m-1760 -114 c22 -61 43 -108 47 -104 4 4 24 56 45 116 21
59 42 107 47 107 11 0 9 -5 -42 -149 -23 -64 -44 -107 -53 -109 -15 -3 -17 0
-67 143 -15 44 -31 88 -36 99 -5 13 -3 17 6 14 8 -2 32 -55 53 -117z m517 89
c0 -23 4 -30 20 -30 11 0 20 -4 20 -10 0 -5 -10 -10 -21 -10 -20 0 -21 -4 -17
-71 3 -55 8 -74 23 -85 10 -8 16 -16 13 -19 -11 -11 -40 8 -49 32 -12 33 -12
223 1 223 6 0 10 -13 10 -30z m515 16 c24 -11 33 -20 29 -30 -5 -14 -9 -14
-34 -1 -36 18 -61 19 -84 2 -28 -21 -9 -45 49 -62 87 -25 108 -74 54 -127 -29
-29 -33 -30 -90 -25 -68 6 -72 8 -64 29 5 13 12 14 40 5 50 -15 100 1 100 33
0 16 -8 28 -25 36 -113 52 -119 58 -106 110 11 42 70 55 131 30z m105 -16 c0
-25 4 -30 25 -30 16 0 25 -6 25 -15 0 -9 -9 -15 -25 -15 -25 0 -26 -1 -23 -62
3 -54 6 -64 26 -73 12 -5 22 -13 22 -18 0 -17 -31 -18 -55 -3 -24 16 -25 20
-25 131 0 96 3 115 15 115 10 0 15 -10 15 -30z m482 -30 l3 -61 35 30 c19 17
44 30 55 31 16 0 12 -7 -20 -40 l-39 -40 42 -60 c40 -57 41 -60 20 -60 -16 0
-32 14 -53 45 -16 25 -33 45 -37 45 -5 0 -8 -20 -8 -45 0 -38 -3 -45 -20 -45
-19 0 -20 7 -20 130 0 122 1 130 20 130 16 0 19 -8 22 -60z m193 28 c1 -20 -2
-24 -11 -17 -8 7 -14 6 -17 -3 -3 -7 -6 2 -6 20 -1 27 3 33 17 30 11 -2 17
-13 17 -30z m-44 -35 c13 -16 12 -17 -3 -4 -17 13 -22 21 -14 21 2 0 10 -8 17
-17z m-1502 -19 c12 -15 21 -40 21 -55 0 -29 0 -29 -65 -29 -72 0 -83 -12 -44
-51 17 -17 30 -20 65 -16 43 4 59 -5 28 -17 -69 -27 -134 19 -134 95 0 87 82
133 129 73z m191 16 c17 -11 10 -13 -40 -10 -47 2 -75 -28 -75 -80 0 -55 26
-80 82 -80 27 0 42 -4 38 -10 -9 -15 -78 -12 -102 5 -50 35 -50 135 0 170 24
17 74 20 97 5z m265 -13 c20 -16 28 -35 32 -69 5 -42 3 -50 -25 -78 -41 -40
-83 -41 -123 -1 -84 85 27 226 116 148z m85 7 c0 -14 2 -14 22 0 24 17 38 20
38 9 0 -5 -14 -16 -30 -25 -29 -17 -30 -19 -30 -93 0 -43 -4 -75 -10 -75 -6 0
-10 40 -10 100 0 60 4 100 10 100 6 0 10 -7 10 -16z m545 -9 c20 -19 25 -34
25 -75 0 -63 -30 -100 -82 -100 -66 0 -103 56 -87 130 16 69 95 94 144 45z
m184 16 c21 -13 3 -32 -24 -25 -52 13 -88 -41 -65 -97 13 -31 39 -44 69 -34
23 7 39 -14 20 -26 -50 -32 -129 20 -129 85 0 67 32 104 90 105 14 0 31 -3 39
-8z m5390 -94 c8 -26 17 -47 21 -47 4 0 13 21 21 47 8 25 20 48 26 50 8 3 4
-21 -11 -64 -13 -38 -29 -68 -36 -68 -7 0 -23 30 -36 68 -15 43 -19 67 -11 64
6 -2 18 -25 26 -50z m638 38 c2 -6 -9 -11 -23 -10 -39 0 -42 -23 -5 -36 34
-12 49 -43 31 -64 -13 -16 -38 -19 -64 -9 -27 10 -18 22 17 20 38 -1 43 19 8
37 -36 18 -48 42 -31 62 14 17 61 17 67 0z m333 -20 c0 -35 16 -47 26 -20 4 8
13 15 22 15 13 0 13 -3 -2 -19 -16 -18 -16 -21 -1 -50 19 -38 8 -40 -22 -3
l-22 27 -1 -27 c0 -16 -4 -28 -10 -28 -6 0 -10 30 -10 70 0 40 4 70 10 70 6 0
10 -16 10 -35z m580 32 c0 -4 -34 -104 -45 -136 -3 -8 -8 -11 -11 -8 -8 7 38
147 48 147 4 0 8 -2 8 -3z m98 -9 c21 -21 13 -45 -25 -77 l-38 -30 43 -1 c23
0 42 -4 42 -10 0 -5 -22 -10 -50 -10 -62 0 -65 15 -14 63 42 40 39 62 -8 53
-26 -5 -29 -4 -18 9 15 18 51 20 68 3z m122 7 c0 -6 -60 -127 -66 -134 -2 -2
-7 -2 -10 1 -3 3 6 29 20 57 14 28 26 53 26 56 0 3 -13 5 -30 5 -16 0 -30 5
-30 10 0 6 20 10 45 10 25 0 45 -2 45 -5z m100 -5 c0 -5 -11 -10 -25 -10 -14
0 -29 -8 -35 -20 -10 -19 -9 -20 12 -15 36 9 65 -27 50 -60 -21 -46 -92 -21
-92 32 0 27 17 64 34 75 16 11 56 10 56 -2z m100 -9 c-5 -11 -15 -23 -20 -26
-6 -4 -2 -14 11 -24 40 -32 1 -82 -51 -66 -31 10 -23 25 10 19 22 -5 31 -2 36
11 6 16 -3 28 -31 39 -6 2 -5 9 3 17 18 19 15 29 -8 29 -11 0 -20 5 -20 10 0
6 18 10 40 10 37 0 40 -2 30 -19z m120 14 c0 -6 -60 -127 -66 -134 -2 -2 -7
-2 -10 1 -3 3 6 29 20 57 14 28 26 53 26 56 0 3 -13 5 -30 5 -16 0 -30 5 -30
10 0 6 20 10 45 10 25 0 45 -2 45 -5z m87 -7 c14 -23 12 -106 -2 -118 -35 -29
-91 12 -68 50 7 10 10 26 7 35 -13 33 44 62 63 33z m123 -7 c-5 -11 -15 -23
-20 -26 -6 -4 -2 -14 11 -24 40 -32 1 -82 -51 -66 -31 10 -23 25 10 19 22 -5
31 -2 36 11 6 16 -3 28 -31 39 -6 2 -5 9 3 17 18 19 15 29 -8 29 -11 0 -20 5
-20 10 0 6 18 10 40 10 37 0 40 -2 30 -19z m120 9 c0 -5 -11 -10 -25 -10 -15
0 -29 -8 -36 -22 -10 -18 -9 -20 6 -14 23 8 65 -19 65 -42 0 -41 -48 -56 -82
-25 -28 25 -19 92 16 115 16 11 56 10 56 -2z m-1721 -48 c-14 -6 -10 -60 4
-65 6 -2 9 -8 5 -12 -13 -14 -36 15 -40 53 -7 53 0 67 22 45 9 -10 13 -19 9
-21z m-359 13 c9 -10 9 -15 1 -15 -15 0 -14 -57 2 -63 6 -2 9 -7 6 -11 -15
-17 -37 8 -41 47 -7 58 5 74 32 42z m-172 -7 c23 -23 13 -38 -24 -38 -46 0
-41 -23 7 -30 27 -4 30 -7 16 -13 -28 -11 -44 -9 -61 9 -32 31 -14 84 29 84
12 0 26 -5 33 -12z m109 5 c14 -6 10 -9 -17 -13 -29 -4 -35 -9 -35 -30 0 -21
5 -26 33 -28 36 -4 34 -22 -3 -22 -28 0 -55 24 -55 50 0 22 25 50 45 50 7 0
22 -3 32 -7z m177 -9 c31 -30 9 -84 -34 -84 -24 0 -50 26 -50 50 0 24 26 50
50 50 10 0 26 -7 34 -16z m86 6 c0 -4 -7 -10 -15 -14 -9 -3 -15 -19 -15 -41 0
-19 -4 -35 -10 -35 -5 0 -10 22 -10 49 0 45 2 49 25 49 14 0 25 -4 25 -8z
m274 -6 c31 -30 9 -84 -34 -84 -24 0 -50 26 -50 50 0 24 26 50 50 50 10 0 26
-7 34 -16z m113 9 c14 -6 10 -9 -17 -13 -29 -4 -35 -9 -35 -30 0 -21 5 -26 33
-28 36 -4 34 -22 -3 -22 -28 0 -55 24 -55 50 0 22 25 50 45 50 7 0 22 -3 32
-7z m250 0 c14 -6 10 -9 -17 -13 -29 -4 -35 -9 -35 -30 0 -21 5 -26 33 -28 36
-4 34 -22 -3 -22 -28 0 -55 24 -55 50 0 22 25 50 45 50 7 0 22 -3 32 -7z m107
-9 c21 -20 20 -43 -1 -66 -20 -22 -46 -23 -67 -2 -31 30 -9 84 34 84 10 0 26
-7 34 -16z m113 4 c7 -5 14 -5 18 2 10 16 42 12 49 -6 10 -25 7 -84 -4 -84 -5
0 -10 18 -10 41 0 33 -3 40 -17 37 -13 -2 -19 -14 -21 -41 -4 -50 -22 -47 -22
4 0 36 -2 40 -22 37 -19 -2 -24 -10 -26 -40 -5 -55 -22 -46 -22 10 0 48 0 49
33 49 17 0 37 -4 44 -9z m-327 -78 c0 -5 -4 -10 -10 -10 -5 0 -10 5 -10 10 0
6 5 10 10 10 6 0 10 -4 10 -10z"/>
<path d="M2150 500 c0 -5 5 -10 10 -10 6 0 10 5 10 10 0 6 -4 10 -10 10 -5 0
-10 -4 -10 -10z"/>
<path d="M536 418 c-28 -39 -21 -48 39 -48 59 0 67 9 45 51 -15 27 -64 25 -84
-3z"/>
<path d="M986 424 c-50 -50 -21 -144 44 -144 48 0 80 50 66 104 -13 53 -75 75
-110 40z"/>
<path d="M1616 408 c-22 -31 -20 -74 4 -98 26 -26 55 -25 74 2 32 46 8 118
-39 118 -13 0 -31 -10 -39 -22z"/>
<path d="M9094 325 c-4 -9 -2 -21 4 -27 16 -16 47 -5 47 17 0 26 -42 34 -51
10z"/>
<path d="M9422 373 c5 -26 38 -29 38 -4 0 15 -6 21 -21 21 -14 0 -19 -5 -17
-17z"/>
<path d="M9414 325 c-8 -21 10 -39 30 -32 22 9 20 24 -4 37 -16 9 -22 8 -26
-5z"/>
<path d="M9644 325 c-4 -9 -2 -21 4 -27 16 -16 47 -5 47 17 0 26 -42 34 -51
10z"/>
<path d="M7405 340 c-4 -6 5 -10 19 -10 14 0 26 5 26 10 0 6 -9 10 -19 10 -11
0 -23 -4 -26 -10z"/>
<path d="M7684 336 c-10 -26 4 -48 28 -44 17 2 23 10 23 28 0 18 -6 26 -23 28
-13 2 -25 -3 -28 -12z"/>
<path d="M8044 336 c-10 -26 4 -48 28 -44 17 2 23 10 23 28 0 18 -6 26 -23 28
-13 2 -25 -3 -28 -12z"/>
<path d="M8514 336 c-10 -26 4 -48 28 -44 17 2 23 10 23 28 0 18 -6 26 -23 28
-13 2 -25 -3 -28 -12z"/>
</g>
</svg>
